<?xml version="1.0" encoding="utf-8"?>
<!-- Generator: Adobe Illustrator 23.0.6, SVG Export Plug-In . SVG Version: 6.00 Build 0)  -->
<svg version="1.1" id="Layer_1" xmlns="http://www.w3.org/2000/svg" xmlns:xlink="http://www.w3.org/1999/xlink" height="23" x="0px" y="0px"
	 viewBox="0 0 509.65 98.04" style="enable-background:new 0 0 509.65 98.04;" xml:space="preserve">
<style type="text/css">
	.st0{display:none;fill:#FFFFFF;}
	.st1{fill:#FFFFFF;}
</style>
<g>
	<path class="st0" d="M123.19,98.04c-41.06,0-82.12,0-123.19,0C0,65.36,0,32.68,0,0c169.88,0,339.77,0,509.65,0
		c0,18.95,0,37.89,0,56.84c-0.06-0.23-0.17-0.47-0.18-0.7c-0.09-2.48-0.63-4.88-1.31-7.25c-1.95-6.84-5.4-12.77-10.93-17.32
		c-8.36-6.89-18-8.85-28.46-6.69c-10.23,2.12-17.61,8.14-22.44,17.33c-2.74,5.22-4.09,10.83-4.37,16.71
		c-0.3,6.32,0.59,12.45,3.2,18.23c5.24,11.63,14.12,18.59,26.81,20.53c0.87,0.13,1.73,0.24,2.6,0.37c-20,0-40.01,0-60.01,0
		c0.16-0.06,0.32-0.14,0.49-0.19c2.11-0.59,3.29-2.12,3.33-4.32c0.01-0.49,0-0.99,0-1.48c0-12.25-0.01-24.51,0.01-36.76
		c0.01-3.45,0.65-6.8,2.1-9.95c3.21-6.95,8.5-11.25,16.15-12.44c1.18-0.18,2.39-0.14,3.57-0.29c2.4-0.32,3.9-2.25,3.74-4.68
		c-0.14-2.16-1.97-3.84-4.27-3.85c-1.26-0.01-2.54,0.06-3.79,0.21c-6.36,0.72-11.89,3.26-16.59,7.62c-0.25,0.23-0.5,0.44-0.88,0.78
		c-0.02-0.44-0.04-0.71-0.05-0.98c0-1.13,0.01-2.25-0.01-3.38c-0.04-2.36-1.79-4.16-4.1-4.26c-2.39-0.1-4.29,1.56-4.51,3.95
		c-0.03,0.35-0.02,0.7-0.02,1.06c0,21.27,0,42.54,0,63.81c0,0.32-0.02,0.64,0.01,0.95c0.2,1.97,1.17,3.35,3.09,4
		c0.16,0.05,0.3,0.15,0.45,0.22c-5.14,0-10.28,0-15.42,0c0.29-0.12,0.58-0.23,0.86-0.35c1.68-0.71,2.61-1.96,2.75-3.79
		c0.02-0.32,0.01-0.63,0.01-0.95c0-21.34,0-42.67,0-64.01c0-0.25,0-0.49,0-0.74c-0.07-2.36-1.92-4.13-4.32-4.14
		c-2.46-0.02-4.33,1.76-4.4,4.17c-0.01,0.35,0,0.7,0,1.06c0,12.25,0,24.51,0,36.76c0,4.49-1.02,8.72-3.32,12.6
		c-4.59,7.73-13.23,11.82-22.04,10.25c-6.98-1.24-11.8-5.37-14.72-11.75c-1.58-3.44-2.19-7.1-2.18-10.89
		c0.01-12.36,0.01-24.72,0-37.07c0-0.35,0.01-0.71-0.01-1.06c-0.12-1.83-1.25-3.3-2.96-3.86c-2.84-0.93-5.85,1.01-5.84,4.33
		c0.03,12.71-0.01,25.42,0.03,38.13c0.02,4.98,1,9.8,3.14,14.33c4.41,9.32,11.62,15,21.89,16.61c0.79,0.12,1.59,0.24,2.38,0.36
		c-18.88,0-37.75,0-56.63,0c0.27-0.06,0.54-0.13,0.82-0.17c1.11-0.16,2.24-0.25,3.34-0.47c4.71-0.95,8.88-2.99,12.21-6.49
		c4.67-4.9,6.65-10.76,5.78-17.52c-0.69-5.28-3.19-9.49-7.64-12.47c-1.22-0.82-2.53-1.53-3.86-2.17c-3.29-1.57-6.8-2.47-10.3-3.41
		c-2.99-0.8-5.97-1.64-8.93-2.55c-1.52-0.46-2.93-1.2-4.19-2.19c-1.17-0.92-2-2.08-2.41-3.51c-0.49-1.72-0.59-3.47-0.12-5.22
		c1.11-4.14,3.78-6.84,7.76-8.26c3.13-1.12,6.36-1.2,9.58-0.54c3.99,0.82,7.18,2.81,9.08,6.56c0.11,0.22,0.26,0.42,0.42,0.61
		c1.21,1.42,2.75,1.96,4.55,1.48c1.83-0.49,2.96-1.7,3.26-3.61c0.14-0.9-0.09-1.74-0.49-2.55c-2.04-4.19-5.23-7.24-9.45-9.13
		c-6.81-3.05-13.79-3.28-20.76-0.63c-8.44,3.21-13.61,11.28-12.95,19.9c0.38,4.94,2.37,9.01,6.43,11.95
		c1.11,0.8,2.31,1.49,3.52,2.12c2.64,1.35,5.48,2.2,8.33,2.99c3.53,0.98,7.06,1.93,10.56,2.97c1.79,0.53,3.49,1.32,5.04,2.38
		c1.58,1.09,2.78,2.49,3.37,4.34c0.74,2.33,0.87,4.71,0.2,7.08c-1.16,4.09-3.92,6.75-7.76,8.36c-2.92,1.23-6.01,1.54-9.12,1.23
		c-5.4-0.53-9.88-2.57-12.47-7.75c-1.45-2.91-5.57-3-7.35-0.28c-0.92,1.4-1.05,2.89-0.34,4.42c0.92,2,2.15,3.79,3.7,5.36
		c3.78,3.83,8.43,5.89,13.68,6.74c0.97,0.16,1.94,0.28,2.91,0.42c-10.42,0-20.85,0-31.27,0c0.22-0.09,0.44-0.2,0.66-0.28
		c1.97-0.72,3.11-2.45,2.97-4.49c-0.13-1.92-1.65-3.6-3.66-3.97c-0.48-0.09-0.98-0.09-1.47-0.09c-14.86,0-29.72,0-44.58,0
		c-0.4,0-0.8-0.02-1.38-0.03c0.37-0.46,0.6-0.76,0.84-1.05c15.8-18.82,31.61-37.64,47.41-56.46c0.34-0.4,0.67-0.83,0.91-1.29
		c1.37-2.59,0.04-5.53-2.82-6.18c-0.54-0.12-1.12-0.11-1.68-0.11c-16.76-0.01-33.52,0-50.28,0c-0.25,0-0.49,0-0.74,0
		c-2.33,0.07-4.16,1.76-4.29,3.98c-0.14,2.27,1.39,4.18,3.68,4.56c0.48,0.08,0.98,0.09,1.47,0.09c13.31,0,26.62,0,39.93,0
		c0.4,0,0.8,0.02,1.37,0.03c-0.34,0.43-0.54,0.71-0.76,0.97c-8.98,10.72-17.95,21.43-26.93,32.15
		c-6.92,8.26-13.79,16.56-20.79,24.75c-2.06,2.41-1.08,6.63,2.26,7.27c0.13,0.03,0.25,0.11,0.38,0.17c-11.69,0-23.38,0-35.08,0
		c1.15-0.16,2.3-0.28,3.44-0.48c10.11-1.74,17.89-7,23.45-15.59c0.17-0.27,0.34-0.54,0.47-0.82c1.21-2.65-0.46-5.76-3.34-6.17
		c-1.99-0.29-3.51,0.5-4.55,2.19c-1.04,1.68-2.18,3.29-3.61,4.67c-7.26,7.02-15.89,8.96-25.45,6.32
		c-8.39-2.31-13.84-8.06-17.01-16.05c-0.83-2.09-1.38-4.27-1.67-6.65c0.51,0,0.96,0,1.41,0c17.32,0,34.65,0,51.97,0
		c0.39,0,0.78,0.01,1.16-0.01c2.62-0.11,4.39-1.94,4.41-4.55c0.03-4.25-0.54-8.43-1.76-12.5c-2.07-6.88-5.67-12.8-11.35-17.3
		c-7.84-6.21-16.83-8.13-26.55-6.5c-9.87,1.66-17.39,6.95-22.6,15.48c-3.21,5.26-4.92,11.02-5.44,17.15
		c-0.59,6.97,0.25,13.73,3.17,20.11c5.26,11.52,14.13,18.42,26.73,20.33c0.83,0.13,1.66,0.24,2.49,0.37c-18.66,0-37.33,0-55.99,0
		c0.16-0.07,0.32-0.14,0.48-0.2c1.95-0.62,3.08-2.12,3.14-4.15c0.01-0.42,0-0.84,0-1.27c0-27.01,0-54.01,0-81.02
		c0-0.45,0-0.9,0-1.46c0.53,0,0.95,0,1.36,0c8.73,0,17.46,0,26.2,0c0.42,0,0.85,0.01,1.27-0.02c2.72-0.24,4.5-2.87,3.73-5.48
		c-0.59-2.01-2.23-3.13-4.59-3.13c-21.51,0-43.03,0-64.54,0c-0.49,0-0.99,0.05-1.46,0.16c-1.89,0.44-3.19,2.05-3.28,4.03
		c-0.08,1.91,1.06,3.62,2.91,4.19c0.62,0.19,1.31,0.24,1.97,0.24c8.84,0.02,17.68,0.01,26.51,0.01c0.41,0,0.82,0.02,1.3,0.03
		c0,0.62,0,1.11,0,1.6c0,26.87,0,53.73,0,80.6c0,0.39,0,0.77,0,1.16c0.04,2.42,1.12,3.83,3.46,4.55
		C123.01,97.92,123.09,97.99,123.19,98.04z M42.25,21.16c0,0.28,0,0.61,0,0.95c0,5.81,0.01,11.62-0.02,17.42
		c0,0.7,0.22,1.17,0.7,1.65c5.83,5.82,11.64,11.65,17.47,17.47c0.27,0.27,0.63,0.45,1.01,0.71c-0.47,0.48-0.73,0.76-1,1.03
		c-5.77,5.78-11.53,11.56-17.31,17.33c-0.42,0.42-0.66,0.83-0.66,1.46c0.02,5.91,0.01,11.83,0.01,17.74c0,0.26,0.05,0.51,0.1,0.93
		c12.84-12.86,25.56-25.6,38.26-38.33C67.9,46.68,55.09,33.93,42.25,21.16z M0.39,38.74c12.77,12.72,25.53,25.43,38.26,38.11
		c0.01-0.19,0.04-0.53,0.04-0.86c0-5.74-0.02-11.47,0.02-17.21c0-0.77-0.22-1.3-0.77-1.84c-5.76-5.73-11.5-11.5-17.25-17.25
		c-0.26-0.27-0.51-0.55-0.89-0.95c0.38-0.31,0.71-0.52,0.98-0.8c5.82-5.82,11.64-11.66,17.47-17.47c0.46-0.46,0.66-0.9,0.65-1.56
		c-0.03-5.84-0.02-11.69-0.02-17.53c0-0.33-0.04-0.66-0.05-0.88C26.01,13.26,13.19,26.01,0.39,38.74z"/>
	<path class="st1" d="M474.57,98.04c-0.87-0.12-1.74-0.23-2.6-0.37c-12.69-1.94-21.57-8.9-26.81-20.53
		c-2.61-5.78-3.49-11.91-3.2-18.23c0.28-5.88,1.62-11.49,4.37-16.71c4.83-9.19,12.22-15.21,22.44-17.33
		c10.46-2.17,20.1-0.2,28.46,6.69c5.52,4.55,8.97,10.49,10.93,17.32c0.68,2.37,1.22,4.77,1.31,7.25c0.01,0.24,0.11,0.47,0.18,0.7
		c0,1.83,0,3.66,0,5.49c-0.39,0.91-0.9,1.72-1.73,2.3c-0.94,0.66-1.99,0.81-3.11,0.81c-9.29-0.01-18.58,0-27.88,0
		c-8.27,0-16.54,0-24.81,0c-0.4,0-0.81,0.02-1.25,0.04c0.04,0.42,0.03,0.71,0.1,0.98c0.47,1.8,0.82,3.65,1.46,5.39
		c5.47,14.73,20.24,20.46,33.4,15.84c5.53-1.94,9.7-5.57,12.76-10.55c1.4-2.27,4.07-2.89,6.23-1.54c1.78,1.11,2.84,3.81,1.28,6.22
		c-5.74,8.9-13.76,14.29-24.3,15.84c-0.86,0.13-1.72,0.26-2.59,0.39C477.67,98.04,476.12,98.04,474.57,98.04z M500.87,56.59
		c-0.41-1.88-0.7-3.62-1.17-5.3c-1.52-5.42-4.27-10.09-8.75-13.62c-4.62-3.64-9.94-5.14-15.77-4.93
		c-6.31,0.22-11.79,2.48-16.32,6.91c-4.24,4.15-6.65,9.27-7.75,15.05c-0.12,0.61-0.18,1.22-0.28,1.89
		C467.53,56.59,484.09,56.59,500.87,56.59z"/>
	<path class="st1" d="M180.45,98.04c-0.83-0.12-1.66-0.24-2.49-0.37c-12.61-1.91-21.47-8.81-26.73-20.33
		c-2.91-6.38-3.76-13.15-3.17-20.11c0.52-6.13,2.23-11.89,5.44-17.15c5.21-8.53,12.74-13.82,22.6-15.48
		c9.73-1.63,18.72,0.29,26.55,6.5c5.68,4.5,9.28,10.42,11.35,17.3c1.23,4.07,1.8,8.24,1.76,12.5c-0.02,2.61-1.79,4.44-4.41,4.55
		c-0.39,0.02-0.77,0.01-1.16,0.01c-17.32,0-34.65,0-51.97,0c-0.45,0-0.9,0-1.41,0c0.29,2.38,0.84,4.56,1.67,6.65
		c3.16,8,8.62,13.74,17.01,16.05c9.56,2.64,18.19,0.7,25.45-6.32c1.42-1.38,2.57-2.98,3.61-4.67c1.04-1.69,2.56-2.47,4.55-2.19
		c2.88,0.41,4.55,3.52,3.34,6.17c-0.13,0.29-0.3,0.56-0.47,0.82c-5.56,8.59-13.34,13.85-23.45,15.59c-1.14,0.2-2.29,0.32-3.44,0.48
		C183.55,98.04,182,98.04,180.45,98.04z M156.8,56.58c16.69,0,33.25,0,49.88,0c-0.03-0.41-0.01-0.76-0.09-1.1
		c-0.47-1.98-0.81-4.01-1.47-5.93c-3.61-10.55-12.51-17.38-24.31-16.81c-7.37,0.36-13.41,3.43-18.04,9.18
		C159.36,46.18,157.54,51.1,156.8,56.58z"/>
	<path class="st1" d="M220.17,98.04c-0.13-0.06-0.25-0.14-0.38-0.17c-3.34-0.64-4.32-4.86-2.26-7.27
		c6.99-8.2,13.87-16.49,20.79-24.75c8.98-10.71,17.95-21.43,26.93-32.15c0.22-0.26,0.42-0.54,0.76-0.97
		c-0.57-0.01-0.97-0.03-1.37-0.03c-13.31,0-26.62,0-39.93,0c-0.49,0-0.99-0.01-1.47-0.09c-2.29-0.38-3.81-2.29-3.68-4.56
		c0.13-2.22,1.96-3.91,4.29-3.98c0.25-0.01,0.49,0,0.74,0c16.76,0,33.52,0,50.28,0c0.56,0,1.14-0.01,1.68,0.11
		c2.86,0.65,4.19,3.59,2.82,6.18c-0.24,0.46-0.58,0.88-0.91,1.29c-15.8,18.82-31.61,37.64-47.41,56.46
		c-0.24,0.29-0.47,0.59-0.84,1.05c0.58,0.02,0.98,0.03,1.38,0.03c14.86,0,29.72,0,44.58,0c0.49,0,0.99,0,1.47,0.09
		c2,0.37,3.53,2.05,3.66,3.97c0.14,2.04-1.01,3.77-2.97,4.49c-0.22,0.08-0.44,0.18-0.66,0.28
		C258.49,98.04,239.33,98.04,220.17,98.04z"/>
	<path class="st1" d="M369.14,98.04c-0.79-0.12-1.59-0.23-2.38-0.36c-10.28-1.61-17.48-7.29-21.89-16.61
		c-2.14-4.52-3.12-9.34-3.14-14.33c-0.04-12.71,0-25.42-0.03-38.13c-0.01-3.32,3.01-5.25,5.84-4.33c1.71,0.56,2.84,2.03,2.96,3.86
		c0.02,0.35,0.01,0.7,0.01,1.06c0,12.36,0.01,24.72,0,37.07c0,3.78,0.61,7.44,2.18,10.89c2.92,6.38,7.73,10.5,14.72,11.75
		c8.81,1.57,17.45-2.52,22.04-10.25c2.31-3.88,3.32-8.11,3.32-12.6c0-12.25,0-24.51,0-36.76c0-0.35-0.01-0.7,0-1.06
		c0.07-2.41,1.94-4.18,4.4-4.17c2.4,0.01,4.25,1.78,4.32,4.14c0.01,0.25,0,0.49,0,0.74c0,21.34,0,42.67,0,64.01
		c0,0.32,0.01,0.64-0.01,0.95c-0.14,1.83-1.07,3.08-2.75,3.79c-0.29,0.12-0.58,0.23-0.86,0.35c-0.49,0-0.99,0-1.48,0
		c-0.09-0.06-0.16-0.13-0.26-0.16c-2.34-0.75-3.36-2.12-3.37-4.59c-0.01-1.23,0-2.46-0.01-3.69c0-0.22-0.06-0.43-0.09-0.66
		c-0.12,0.03-0.17,0.03-0.19,0.06c-0.13,0.11-0.26,0.23-0.39,0.35c-4.7,4.58-10.27,7.39-16.78,8.32c-0.79,0.11-1.58,0.24-2.37,0.36
		C371.67,98.04,370.4,98.04,369.14,98.04z"/>
	<path class="st1" d="M308.92,98.04c-0.97-0.14-1.94-0.27-2.91-0.42c-5.25-0.85-9.9-2.91-13.68-6.74c-1.55-1.57-2.78-3.36-3.7-5.36
		c-0.7-1.53-0.57-3.02,0.34-4.42c1.78-2.72,5.89-2.63,7.35,0.28c2.59,5.18,7.07,7.22,12.47,7.75c3.11,0.31,6.2,0,9.12-1.23
		c3.84-1.62,6.59-4.27,7.76-8.36c0.67-2.36,0.54-4.74-0.2-7.08c-0.59-1.85-1.78-3.25-3.37-4.34c-1.55-1.07-3.25-1.85-5.04-2.38
		c-3.51-1.04-7.04-1.99-10.56-2.97c-2.85-0.79-5.69-1.64-8.33-2.99c-1.22-0.62-2.42-1.32-3.52-2.12c-4.06-2.93-6.05-7-6.43-11.95
		c-0.66-8.61,4.51-16.68,12.95-19.9c6.96-2.65,13.95-2.42,20.76,0.63c4.22,1.89,7.41,4.94,9.45,9.13c0.39,0.81,0.63,1.65,0.49,2.55
		c-0.3,1.91-1.44,3.12-3.26,3.61c-1.79,0.48-3.34-0.06-4.55-1.48c-0.16-0.19-0.31-0.39-0.42-0.61c-1.89-3.75-5.09-5.74-9.08-6.56
		c-3.23-0.66-6.46-0.58-9.58,0.54c-3.98,1.42-6.65,4.12-7.76,8.26c-0.47,1.75-0.37,3.49,0.12,5.22c0.41,1.43,1.24,2.59,2.41,3.51
		c1.26,0.99,2.67,1.73,4.19,2.19c2.96,0.91,5.94,1.74,8.93,2.55c3.5,0.94,7.02,1.84,10.3,3.41c1.33,0.63,2.64,1.35,3.86,2.17
		c4.44,2.98,6.95,7.18,7.64,12.47c0.88,6.76-1.1,12.62-5.78,17.52c-3.33,3.49-7.5,5.53-12.21,6.49c-1.1,0.22-2.23,0.31-3.34,0.47
		c-0.27,0.04-0.54,0.11-0.82,0.17C311.31,98.04,310.11,98.04,308.92,98.04z"/>
	<path class="st1" d="M123.19,98.04c-0.09-0.05-0.18-0.12-0.28-0.15c-2.35-0.72-3.42-2.13-3.46-4.55c-0.01-0.39,0-0.77,0-1.16
		c0-26.87,0-53.73,0-80.6c0-0.49,0-0.98,0-1.6c-0.48-0.01-0.89-0.03-1.3-0.03c-8.84,0-17.68,0-26.51-0.01
		c-0.66,0-1.35-0.05-1.97-0.24c-1.84-0.57-2.99-2.28-2.91-4.19c0.09-1.98,1.38-3.6,3.28-4.03c0.48-0.11,0.97-0.16,1.46-0.16
		c21.51-0.01,43.03-0.01,64.54,0c2.37,0,4,1.13,4.59,3.13c0.78,2.62-1.01,5.25-3.73,5.48c-0.42,0.04-0.84,0.02-1.27,0.02
		c-8.73,0-17.46,0-26.2,0c-0.41,0-0.83,0-1.36,0c0,0.56,0,1.01,0,1.46c0,27.01,0,54.01,0,81.02c0,0.42,0.01,0.85,0,1.27
		c-0.06,2.03-1.19,3.53-3.14,4.15c-0.17,0.05-0.32,0.13-0.48,0.2C124.03,98.04,123.61,98.04,123.19,98.04z"/>
	<path class="st0" d="M479.22,98.04c0.86-0.13,1.72-0.26,2.59-0.39c10.53-1.55,18.55-6.94,24.3-15.84c1.55-2.41,0.5-5.11-1.28-6.22
		c-2.16-1.35-4.83-0.73-6.23,1.54c-3.05,4.98-7.23,8.61-12.76,10.55c-13.16,4.62-27.93-1.11-33.4-15.84
		c-0.65-1.74-0.99-3.59-1.46-5.39c-0.07-0.27-0.06-0.56-0.1-0.98c0.44-0.01,0.85-0.03,1.25-0.04c8.27,0,16.54,0,24.81,0
		c9.29,0,18.58,0,27.88,0c1.11,0,2.17-0.16,3.11-0.81c0.83-0.58,1.34-1.39,1.73-2.3c0,11.9,0,23.81,0,35.71
		C499.51,98.04,489.36,98.04,479.22,98.04z"/>
	<path class="st1" d="M413.3,98.04c-0.15-0.08-0.29-0.17-0.45-0.22c-1.92-0.65-2.89-2.03-3.09-4c-0.03-0.31-0.01-0.63-0.01-0.95
		c0-21.27,0-42.54,0-63.81c0-0.35-0.01-0.71,0.02-1.06c0.23-2.39,2.13-4.04,4.51-3.95c2.31,0.1,4.06,1.9,4.1,4.26
		c0.02,1.13,0,2.25,0.01,3.38c0,0.27,0.02,0.54,0.05,0.98c0.38-0.33,0.63-0.55,0.88-0.78c4.7-4.36,10.23-6.9,16.59-7.62
		c1.26-0.14,2.53-0.21,3.79-0.21c2.3,0.01,4.13,1.7,4.27,3.85c0.16,2.44-1.34,4.36-3.74,4.68c-1.18,0.16-2.4,0.11-3.57,0.29
		c-7.65,1.19-12.94,5.5-16.15,12.44c-1.45,3.14-2.09,6.49-2.1,9.95c-0.02,12.25-0.01,24.51-0.01,36.76c0,0.49,0.01,0.99,0,1.48
		c-0.04,2.2-1.22,3.73-3.33,4.32c-0.17,0.05-0.33,0.12-0.49,0.19C414.14,98.04,413.72,98.04,413.3,98.04z"/>
	<path class="st0" d="M372.94,98.04c0.79-0.12,1.58-0.25,2.37-0.36c6.51-0.94,12.08-3.74,16.78-8.32c0.13-0.12,0.26-0.24,0.39-0.35
		c0.02-0.02,0.07-0.02,0.19-0.06c0.03,0.23,0.09,0.44,0.09,0.66c0.01,1.23,0,2.46,0.01,3.69c0.01,2.46,1.02,3.84,3.37,4.59
		c0.09,0.03,0.17,0.11,0.26,0.16C388.57,98.04,380.76,98.04,372.94,98.04z"/>
	<path class="st1" d="M42.25,21.16C55.09,33.93,67.9,46.68,80.81,59.53C68.11,72.26,55.39,84.99,42.55,97.86
		c-0.05-0.42-0.1-0.68-0.1-0.93c0-5.91,0.01-11.83-0.01-17.74c0-0.63,0.23-1.04,0.66-1.46c5.78-5.77,11.54-11.55,17.31-17.33
		c0.27-0.27,0.53-0.55,1-1.03c-0.38-0.26-0.74-0.44-1.01-0.71c-5.83-5.82-11.64-11.66-17.47-17.47c-0.48-0.48-0.7-0.95-0.7-1.65
		c0.03-5.81,0.02-11.62,0.02-17.42C42.25,21.77,42.25,21.43,42.25,21.16z"/>
	<path class="st1" d="M0.39,38.74c12.8-12.73,25.62-25.48,38.45-38.24c0.01,0.22,0.05,0.55,0.05,0.88c0,5.84-0.01,11.69,0.02,17.53
		c0,0.66-0.2,1.1-0.65,1.56c-5.83,5.82-11.65,11.65-17.47,17.47c-0.27,0.27-0.6,0.49-0.98,0.8c0.38,0.4,0.62,0.69,0.89,0.95
		c5.74,5.75,11.48,11.52,17.25,17.25c0.54,0.54,0.77,1.07,0.77,1.84c-0.03,5.74-0.01,11.47-0.02,17.21c0,0.34-0.03,0.67-0.04,0.86
		C25.92,64.16,13.17,51.46,0.39,38.74z"/>
	<path class="st0" d="M500.87,56.59c-16.77,0-33.33,0-50.02,0c0.1-0.67,0.16-1.29,0.28-1.89c1.1-5.78,3.5-10.9,7.75-15.05
		c4.53-4.43,10-6.68,16.32-6.91c5.83-0.21,11.15,1.3,15.77,4.93c4.48,3.52,7.23,8.19,8.75,13.62
		C500.17,52.97,500.46,54.71,500.87,56.59z"/>
	<path class="st0" d="M156.8,56.58c0.74-5.47,2.56-10.4,5.98-14.65c4.63-5.75,10.67-8.82,18.04-9.18
		c11.79-0.58,20.7,6.25,24.31,16.81c0.66,1.92,1,3.95,1.47,5.93c0.08,0.33,0.06,0.69,0.09,1.1
		C190.05,56.58,173.49,56.58,156.8,56.58z"/>
</g>
</svg>
