<svg width="491" height="158" viewBox="0 0 491 158" fill="none" xmlns="http://www.w3.org/2000/svg">
<g clip-path="url(#clip0_430_63)">
<path d="M225.112 59.912L214.192 99H204.952L197.616 71.168L189.944 99L180.76 99.056L170.232 59.912H178.632L185.52 90.264L193.472 59.912H202.208L209.712 90.096L216.656 59.912H225.112ZM259.071 82.816C259.071 83.936 258.997 84.944 258.847 85.84H236.167C236.354 88.08 237.138 89.8347 238.519 91.104C239.901 92.3733 241.599 93.008 243.615 93.008C246.527 93.008 248.599 91.7573 249.831 89.256H258.287C257.391 92.2427 255.674 94.7067 253.135 96.648C250.597 98.552 247.479 99.504 243.783 99.504C240.797 99.504 238.109 98.8507 235.719 97.544C233.367 96.2 231.519 94.3147 230.175 91.888C228.869 89.4613 228.215 86.6613 228.215 83.488C228.215 80.2773 228.869 77.4587 230.175 75.032C231.482 72.6053 233.311 70.7387 235.663 69.432C238.015 68.1253 240.722 67.472 243.783 67.472C246.733 67.472 249.365 68.1067 251.679 69.376C254.031 70.6453 255.842 72.456 257.111 74.808C258.418 77.1227 259.071 79.792 259.071 82.816ZM250.951 80.576C250.914 78.56 250.186 76.9547 248.767 75.76C247.349 74.528 245.613 73.912 243.559 73.912C241.618 73.912 239.975 74.5093 238.631 75.704C237.325 76.8613 236.522 78.4853 236.223 80.576H250.951ZM272.634 72.512C273.642 71.0187 275.023 69.8053 276.778 68.872C278.57 67.9387 280.604 67.472 282.882 67.472C285.532 67.472 287.922 68.1253 290.05 69.432C292.215 70.7387 293.914 72.6053 295.146 75.032C296.415 77.4213 297.05 80.2027 297.05 83.376C297.05 86.5493 296.415 89.368 295.146 91.832C293.914 94.2587 292.215 96.144 290.05 97.488C287.922 98.832 285.532 99.504 282.882 99.504C280.567 99.504 278.532 99.056 276.778 98.16C275.06 97.2267 273.679 96.032 272.634 94.576V99H264.794V57.56H272.634V72.512ZM289.042 83.376C289.042 81.5093 288.65 79.904 287.866 78.56C287.119 77.1787 286.111 76.1333 284.842 75.424C283.61 74.7147 282.266 74.36 280.81 74.36C279.391 74.36 278.047 74.7333 276.778 75.48C275.546 76.1893 274.538 77.2347 273.754 78.616C273.007 79.9973 272.634 81.6213 272.634 83.488C272.634 85.3547 273.007 86.9787 273.754 88.36C274.538 89.7413 275.546 90.8053 276.778 91.552C278.047 92.2613 279.391 92.616 280.81 92.616C282.266 92.616 283.61 92.2427 284.842 91.496C286.111 90.7493 287.119 89.6853 287.866 88.304C288.65 86.9227 289.042 85.28 289.042 83.376ZM301.963 68.928C302.149 65.1947 303.456 62.32 305.883 60.304C308.347 58.2507 311.576 57.224 315.571 57.224C318.296 57.224 320.629 57.7093 322.571 58.68C324.512 59.6133 325.968 60.9013 326.939 62.544C327.947 64.1493 328.451 65.9787 328.451 68.032C328.451 70.384 327.835 72.3813 326.603 74.024C325.408 75.6293 323.971 76.712 322.291 77.272V77.496C324.456 78.168 326.136 79.3627 327.331 81.08C328.563 82.7973 329.179 85 329.179 87.688C329.179 89.928 328.656 91.9253 327.611 93.68C326.603 95.4347 325.091 96.816 323.075 97.824C321.096 98.7947 318.707 99.28 315.907 99.28C311.688 99.28 308.253 98.216 305.603 96.088C302.952 93.96 301.552 90.824 301.403 86.68H309.019C309.093 88.5093 309.709 89.984 310.867 91.104C312.061 92.1867 313.685 92.728 315.739 92.728C317.643 92.728 319.099 92.2053 320.107 91.16C321.152 90.0773 321.675 88.696 321.675 87.016C321.675 84.776 320.965 83.1707 319.547 82.2C318.128 81.2293 315.925 80.744 312.939 80.744H311.315V74.304H312.939C318.24 74.304 320.891 72.5307 320.891 68.984C320.891 67.3787 320.405 66.128 319.435 65.232C318.501 64.336 317.139 63.888 315.347 63.888C313.592 63.888 312.229 64.3733 311.259 65.344C310.325 66.2773 309.784 67.472 309.635 68.928H301.963ZM344.11 92.784H356.99V99H336.27V59.912H344.11V92.784ZM390.813 82.816C390.813 83.936 390.739 84.944 390.589 85.84H367.909C368.096 88.08 368.88 89.8347 370.261 91.104C371.643 92.3733 373.341 93.008 375.357 93.008C378.269 93.008 380.341 91.7573 381.573 89.256H390.029C389.133 92.2427 387.416 94.7067 384.877 96.648C382.339 98.552 379.221 99.504 375.525 99.504C372.539 99.504 369.851 98.8507 367.461 97.544C365.109 96.2 363.261 94.3147 361.917 91.888C360.611 89.4613 359.957 86.6613 359.957 83.488C359.957 80.2773 360.611 77.4587 361.917 75.032C363.224 72.6053 365.053 70.7387 367.405 69.432C369.757 68.1253 372.464 67.472 375.525 67.472C378.475 67.472 381.107 68.1067 383.421 69.376C385.773 70.6453 387.584 72.456 388.853 74.808C390.16 77.1227 390.813 79.792 390.813 82.816ZM382.693 80.576C382.656 78.56 381.928 76.9547 380.509 75.76C379.091 74.528 377.355 73.912 375.301 73.912C373.36 73.912 371.717 74.5093 370.373 75.704C369.067 76.8613 368.264 78.4853 367.965 80.576H382.693ZM394.52 83.376C394.52 80.24 395.136 77.4587 396.368 75.032C397.637 72.6053 399.336 70.7387 401.464 69.432C403.629 68.1253 406.037 67.472 408.688 67.472C411.003 67.472 413.019 67.9387 414.736 68.872C416.491 69.8053 417.891 70.9813 418.936 72.4V67.976H426.832V99H418.936V94.464C417.928 95.92 416.528 97.1333 414.736 98.104C412.981 99.0373 410.947 99.504 408.632 99.504C406.019 99.504 403.629 98.832 401.464 97.488C399.336 96.144 397.637 94.2587 396.368 91.832C395.136 89.368 394.52 86.5493 394.52 83.376ZM418.936 83.488C418.936 81.584 418.563 79.96 417.816 78.616C417.069 77.2347 416.061 76.1893 414.792 75.48C413.523 74.7333 412.16 74.36 410.704 74.36C409.248 74.36 407.904 74.7147 406.672 75.424C405.44 76.1333 404.432 77.1787 403.648 78.56C402.901 79.904 402.528 81.5093 402.528 83.376C402.528 85.2427 402.901 86.8853 403.648 88.304C404.432 89.6853 405.44 90.7493 406.672 91.496C407.941 92.2427 409.285 92.616 410.704 92.616C412.16 92.616 413.523 92.2613 414.792 91.552C416.061 90.8053 417.069 89.76 417.816 88.416C418.563 87.0347 418.936 85.392 418.936 83.488ZM442.329 72.792C443.337 71.1493 444.644 69.8613 446.249 68.928C447.892 67.9947 449.758 67.528 451.849 67.528V75.76H449.777C447.313 75.76 445.446 76.3387 444.177 77.496C442.945 78.6533 442.329 80.6693 442.329 83.544V99H434.489V67.976H442.329V72.792ZM474.322 67.528C478.018 67.528 481.004 68.704 483.282 71.056C485.559 73.3707 486.698 76.6187 486.698 80.8V99H478.858V81.864C478.858 79.4 478.242 77.5147 477.01 76.208C475.778 74.864 474.098 74.192 471.97 74.192C469.804 74.192 468.087 74.864 466.818 76.208C465.586 77.5147 464.97 79.4 464.97 81.864V99H457.13V67.976H464.97V71.84C466.015 70.496 467.34 69.4507 468.946 68.704C470.588 67.92 472.38 67.528 474.322 67.528Z" fill="white"/>
<path d="M13 44.4995L74.4997 8.00304L136.5 44.5023L74.4997 79L13 44.4995Z" fill="url(#paint0_linear_430_63)"/>
<path d="M13 44.5L75 79V149.5L13 114.5V44.5Z" fill="url(#paint1_linear_430_63)"/>
<path d="M137 44L75 78.5V149L137 114V44Z" fill="url(#paint2_linear_430_63)"/>
</g>
<defs>
<linearGradient id="paint0_linear_430_63" x1="28.5892" y1="17.4983" x2="121.216" y2="70.9761" gradientUnits="userSpaceOnUse">
<stop stop-color="#D817F8"/>
<stop offset="1" stop-color="#5424E0"/>
</linearGradient>
<linearGradient id="paint1_linear_430_63" x1="44" y1="44.5" x2="44" y2="149.5" gradientUnits="userSpaceOnUse">
<stop stop-color="#C819F5"/>
<stop offset="1" stop-color="#5A25E0"/>
</linearGradient>
<linearGradient id="paint2_linear_430_63" x1="106" y1="44" x2="106" y2="149" gradientUnits="userSpaceOnUse">
<stop stop-color="#C819F5"/>
<stop offset="1" stop-color="#5A25E0"/>
</linearGradient>
<clipPath id="clip0_430_63">
<rect width="491" height="158" fill="white"/>
</clipPath>
</defs>
</svg>
