<svg width="38" height="37" viewBox="0 0 38 37" fill="none" xmlns="http://www.w3.org/2000/svg">
<path d="M18.9949 12.3307C15.5061 12.3307 12.659 15.103 12.659 18.5C12.659 21.897 15.5061 24.6693 18.9949 24.6693C22.4837 24.6693 25.3308 21.897 25.3308 18.5C25.3308 15.103 22.4837 12.3307 18.9949 12.3307ZM37.9979 18.5C37.9979 15.9453 38.0216 13.4137 37.8743 10.8636C37.727 7.90159 37.033 5.27281 34.8085 3.10685C32.5793 0.936258 29.8843 0.26518 26.8423 0.121708C24.2186 -0.0217641 21.6186 0.00137661 18.9996 0.00137661C16.3759 0.00137661 13.776 -0.0217641 11.157 0.121708C8.115 0.26518 5.41522 0.940886 3.19076 3.10685C0.961545 5.27744 0.272342 7.90159 0.124995 10.8636C-0.0223519 13.4183 0.00141379 15.9499 0.00141379 18.5C0.00141379 21.0501 -0.0223519 23.5863 0.124995 26.1364C0.272342 29.0984 0.966298 31.7272 3.19076 33.8932C5.41997 36.0637 8.115 36.7348 11.157 36.8783C13.7807 37.0218 16.3807 36.9986 18.9996 36.9986C21.6234 36.9986 24.2233 37.0218 26.8423 36.8783C29.8843 36.7348 32.5841 36.0591 34.8085 33.8932C37.0378 31.7226 37.727 29.0984 37.8743 26.1364C38.0264 23.5863 37.9979 21.0547 37.9979 18.5ZM18.9949 27.9923C13.6001 27.9923 9.24624 23.7529 9.24624 18.5C9.24624 13.2471 13.6001 9.00771 18.9949 9.00771C24.3897 9.00771 28.7435 13.2471 28.7435 18.5C28.7435 23.7529 24.3897 27.9923 18.9949 27.9923ZM29.1428 10.8358C27.8832 10.8358 26.8661 9.8454 26.8661 8.61895C26.8661 7.3925 27.8832 6.40208 29.1428 6.40208C30.4024 6.40208 31.4196 7.3925 31.4196 8.61895C31.4199 8.91018 31.3613 9.19861 31.247 9.46774C31.1327 9.73687 30.965 9.9814 30.7535 10.1873C30.5421 10.3933 30.2909 10.5565 30.0145 10.6678C29.7381 10.7791 29.4419 10.8362 29.1428 10.8358Z" fill="white"/>
</svg>
