<svg width="31" height="36" viewBox="0 0 31 36" fill="none" xmlns="http://www.w3.org/2000/svg">
<path d="M9.24726 14.0633C12.14 8.27307 21.8863 9.54723 23.2785 15.9081C24.1185 19.7463 20.5766 22.4324 20.1191 26.0267L11.9995 26.0267C11.7608 25.0656 11.275 23.9225 10.9386 23.22C10.2395 21.7604 9.25064 20.8063 8.87516 19.178C8.51797 17.6286 8.55932 15.4405 9.24726 14.0633Z" stroke="#31E0FF" stroke-width="2.35" stroke-miterlimit="1.5" stroke-linecap="round" stroke-linejoin="round"/>
<path fill-rule="evenodd" clip-rule="evenodd" d="M20.2686 30.9247C20.2709 29.8156 20.3254 28.7065 20.3061 27.5977C20.2985 27.1587 20.3735 26.6217 19.9935 26.3147C19.4386 25.8667 18.6133 25.8014 17.9247 25.7848C16.634 25.7539 15.3335 25.7648 14.0415 25.7675C13.4531 25.7685 12.575 25.6663 12.0447 25.9587C11.5399 26.2365 11.4122 26.9937 11.3554 27.5051C11.2466 28.4851 10.9568 30.6734 11.7888 31.432C12.3128 31.9099 13.1302 32.0099 13.8013 32.0925C15.5814 32.3115 20.266 32.268 20.2686 30.9247Z" stroke="#31E0FF" stroke-width="2.35" stroke-miterlimit="1.5" stroke-linecap="round" stroke-linejoin="round"/>
<path d="M15.5245 32.1873C15.5099 32.7909 15.5028 33.3976 15.5503 34.0002" stroke="#31E0FF" stroke-width="2.35" stroke-miterlimit="1.5" stroke-linecap="round" stroke-linejoin="round"/>
<path d="M29.6016 22.9722C28.9683 22.6379 28.3068 22.3629 27.6668 22.0432" stroke="#31E0FF" stroke-width="2.35" stroke-miterlimit="1.5" stroke-linecap="round" stroke-linejoin="round"/>
<path d="M29.6016 9.9812C28.8946 10.4301 28.2184 10.9262 27.5098 11.3713" stroke="#31E0FF" stroke-width="2.35" stroke-miterlimit="1.5" stroke-linecap="round" stroke-linejoin="round"/>
<path d="M15.6479 4.66058C15.6728 3.77149 15.6673 2.88877 15.6389 2" stroke="#31E0FF" stroke-width="2.35" stroke-miterlimit="1.5" stroke-linecap="round" stroke-linejoin="round"/>
<path d="M4.70404 10.7167C3.81657 10.1292 2.90261 9.5773 1.99996 9.01343" stroke="#31E0FF" stroke-width="2.35" stroke-miterlimit="1.5" stroke-linecap="round" stroke-linejoin="round"/>
<path d="M6.25232 22.832C5.56798 23.4453 4.88074 24.0515 4.21836 24.6887" stroke="#31E0FF" stroke-width="2.35" stroke-miterlimit="1.5" stroke-linecap="round" stroke-linejoin="round"/>
</svg>
