<svg width="59" height="68" viewBox="0 0 59 68" fill="none" xmlns="http://www.w3.org/2000/svg">
<path d="M16.4418 26.0371C22.2059 14.4995 41.6266 17.0384 44.4006 29.7132C46.0743 37.3612 39.0168 42.7135 38.1052 49.8755L21.9261 49.8755C21.4503 47.9604 20.4824 45.6828 19.8121 44.2829C18.419 41.3745 16.4486 39.4734 15.7004 36.2288C14.9886 33.1415 15.071 28.7814 16.4418 26.0371Z" stroke="#31E0FF" stroke-width="4" stroke-miterlimit="1.5" stroke-linecap="round" stroke-linejoin="round"/>
<path fill-rule="evenodd" clip-rule="evenodd" d="M38.4024 59.6358C38.4071 57.4258 38.5155 55.2159 38.4772 53.0066C38.4619 52.1317 38.6114 51.0616 37.8542 50.4499C36.7486 49.5572 35.104 49.4271 33.7318 49.3941C31.1601 49.3326 28.5686 49.3542 25.9942 49.3595C24.8218 49.3615 23.0721 49.158 22.0153 49.7405C21.0095 50.294 20.7549 51.8028 20.6419 52.8219C20.425 54.7746 19.8477 59.1351 21.5055 60.6468C22.5496 61.599 24.1784 61.7982 25.5155 61.9628C29.0626 62.3993 38.3971 62.3126 38.4024 59.6358Z" stroke="#31E0FF" stroke-width="4" stroke-miterlimit="1.5" stroke-linecap="round" stroke-linejoin="round"/>
<path d="M28.9475 62.1509C28.9186 63.3536 28.9044 64.5626 28.999 65.7634" stroke="#31E0FF" stroke-width="4" stroke-miterlimit="1.5" stroke-linecap="round" stroke-linejoin="round"/>
<path d="M57 43.7895C55.7381 43.1235 54.4201 42.5756 53.1447 41.9385" stroke="#31E0FF" stroke-width="4" stroke-miterlimit="1.5" stroke-linecap="round" stroke-linejoin="round"/>
<path d="M57 17.9038C55.5913 18.7983 54.2438 19.7869 52.8319 20.6736" stroke="#31E0FF" stroke-width="4" stroke-miterlimit="1.5" stroke-linecap="round" stroke-linejoin="round"/>
<path d="M29.195 7.30149C29.2446 5.52988 29.2336 3.77096 29.177 2" stroke="#31E0FF" stroke-width="4" stroke-miterlimit="1.5" stroke-linecap="round" stroke-linejoin="round"/>
<path d="M7.38867 19.3695C5.62028 18.1989 3.79913 17.0992 2.0005 15.9756" stroke="#31E0FF" stroke-width="4" stroke-miterlimit="1.5" stroke-linecap="round" stroke-linejoin="round"/>
<path d="M10.4736 43.5103C9.11002 44.7323 7.7406 45.9402 6.42075 47.2099" stroke="#31E0FF" stroke-width="4" stroke-miterlimit="1.5" stroke-linecap="round" stroke-linejoin="round"/>
</svg>
