<?xml version="1.0" encoding="utf-8"?>
<!-- Generator: Adobe Illustrator 19.2.1, SVG Export Plug-In . SVG Version: 6.00 Build 0)  -->
<svg version="1.1" id="layer" xmlns="http://www.w3.org/2000/svg" xmlns:xlink="http://www.w3.org/1999/xlink" x="0px" y="0px"
	 viewBox="0 0 652 652" style="enable-background:new 0 0 652 652;" xml:space="preserve">
<style type="text/css">
	.st0{fill:#3F4043;}
	.st1{fill:url(#SVGID_1_);}
	.st2{fill:url(#SVGID_2_);}
	.st3{fill:#29ABE2;}
</style>

<linearGradient id="SVGID_1_" gradientUnits="userSpaceOnUse" x1="146.673" y1="371.5346" x2="212.4312" y2="303.7874" gradientTransform="matrix(1 0 0 -1 0 652)">
	<stop  offset="0.21" style="stop-color:#F15A24"/>
	<stop  offset="0.6841" style="stop-color:#FBB03B"/>
</linearGradient>
<path class="st1" d="M171.7,273.4c-10.9,0-22.8,5.8-35.4,17.3c-6,5.4-11.2,11.2-15,15.9c0,0,6.1,6.9,12.8,14.3
	c3.6-4.5,8.9-10.6,14.9-16.1c11.2-10.2,18.5-12.3,22.7-12.3c15.7,0,28.5,12.9,28.5,28.9c0,15.8-12.7,28.7-28.5,28.9
	c-0.7,0-1.7-0.1-2.7-0.3c4.6,2.1,9.5,3.6,14.2,3.6c28.8,0,34.4-19.5,34.8-20.9c0.8-3.6,1.3-7.3,1.3-11.2
	C219.1,294.9,197.9,273.4,171.7,273.4z"/>
<linearGradient id="SVGID_2_" gradientUnits="userSpaceOnUse" x1="96.1181" y1="289.7902" x2="30.3595" y2="357.5373" gradientTransform="matrix(1 0 0 -1 0 652)">
	<stop  offset="0.21" style="stop-color:#ED1E79"/>
	<stop  offset="0.8929" style="stop-color:#522785"/>
</linearGradient>
<path class="st2" d="M71.1,369.3c10.9,0,22.8-5.8,35.4-17.3c6-5.4,11.2-11.2,15-15.9c0,0-6.1-6.9-12.8-14.3
	c-3.6,4.5-8.9,10.6-14.9,16.1c-11.2,10.2-18.5,12.3-22.7,12.3c-15.7,0-28.5-12.9-28.5-28.9c0-15.8,12.7-28.7,28.5-28.9
	c0.7,0,1.7,0.1,2.7,0.3c-4.6-2.1-9.5-3.6-14.2-3.6c-28.8,0-34.4,19.5-34.8,20.9c-0.8,3.6-1.3,7.3-1.3,11.2
	C23.6,347.7,44.9,369.3,71.1,369.3z"/>
<path class="st3" d="M93,305.2c-3.1-3-18.5-15.2-33.3-15.6c-26.3-0.6-34,18-34.6,20.5c5-21,23.8-36.6,46.1-36.7
	c18.2,0,36.5,17.4,50.1,33.2c0,0,0-0.1,0.1-0.1c0,0,6.1,6.9,12.8,14.3c0,0,7.6,8.8,15.7,16.6c3.1,3,18.5,15.1,33.2,15.5
	c27,0.7,34.4-19,34.9-20.5c-5,21.1-23.8,36.8-46.1,36.9c-18.2,0-36.5-17.5-50.2-33.2c0,0-0.1,0.1-0.1,0.1c0,0-6.1-6.9-12.8-14.3
	C108.7,321.8,101.1,313,93,305.2z M25,310.2c0,0,0-0.1,0-0.2C25.1,310.1,25.1,310.2,25,310.2z"/>
</svg>
