<svg width="419" height="151" viewBox="0 0 419 151" fill="none" xmlns="http://www.w3.org/2000/svg">
<g filter="url(#filter0_b_751_191)">
<path d="M0 11.2037C0 7.28201 0 5.32119 0.763204 3.82332C1.43454 2.50575 2.50575 1.43454 3.82332 0.763204C5.32119 0 7.28201 0 11.2037 0H407.796C411.718 0 413.679 0 415.177 0.763204C416.494 1.43454 417.565 2.50575 418.237 3.82332C419 5.32119 419 7.28201 419 11.2037V139.796C419 143.718 419 145.679 418.237 147.177C417.565 148.494 416.494 149.565 415.177 150.237C413.679 151 411.718 151 407.796 151H11.2037C7.28201 151 5.32119 151 3.82332 150.237C2.50575 149.565 1.43454 148.494 0.763204 147.177C0 145.679 0 143.718 0 139.796V11.2037Z" fill="#633181" fill-opacity="0.85"/>
<path d="M0.7587 11.2037C0.7587 9.23031 0.75929 7.79594 0.851581 6.66635C0.943148 5.54563 1.12119 4.79191 1.43921 4.16776C2.0378 2.99295 2.99295 2.0378 4.16776 1.43921C4.79191 1.12119 5.54563 0.943148 6.66635 0.851581C7.79594 0.75929 9.23032 0.7587 11.2037 0.7587H407.796C409.77 0.7587 411.204 0.75929 412.334 0.851581C413.454 0.943148 414.208 1.12119 414.832 1.43921C416.007 2.0378 416.962 2.99295 417.561 4.16776C417.879 4.79192 418.057 5.54563 418.148 6.66636C418.241 7.79594 418.241 9.23032 418.241 11.2037V139.796C418.241 141.77 418.241 143.204 418.148 144.334C418.057 145.454 417.879 146.208 417.561 146.832C416.962 148.007 416.007 148.962 414.832 149.561C414.208 149.879 413.454 150.057 412.334 150.148C411.204 150.241 409.77 150.241 407.796 150.241H11.2037C9.23032 150.241 7.79594 150.241 6.66636 150.148C5.54563 150.057 4.79191 149.879 4.16776 149.561C2.99295 148.962 2.0378 148.007 1.43921 146.832C1.12119 146.208 0.943148 145.454 0.851581 144.334C0.75929 143.204 0.7587 141.77 0.7587 139.796V11.2037Z" stroke="url(#paint0_radial_751_191)" stroke-opacity="0.8" stroke-width="1.5174"/>
</g>
<defs>
<filter id="filter0_b_751_191" x="-9.7254" y="-9.7254" width="438.451" height="170.451" filterUnits="userSpaceOnUse" color-interpolation-filters="sRGB">
<feFlood flood-opacity="0" result="BackgroundImageFix"/>
<feGaussianBlur in="BackgroundImage" stdDeviation="4.8627"/>
<feComposite in2="SourceAlpha" operator="in" result="effect1_backgroundBlur_751_191"/>
<feBlend mode="normal" in="SourceGraphic" in2="effect1_backgroundBlur_751_191" result="shape"/>
</filter>
<radialGradient id="paint0_radial_751_191" cx="0" cy="0" r="1" gradientUnits="userSpaceOnUse" gradientTransform="translate(14.3493 2.64913) rotate(24.5778) scale(377.905 268.174)">
<stop stop-color="#E8E6EB"/>
<stop stop-color="#E8E6EB"/>
<stop offset="0.015625" stop-color="#E8E6EB"/>
<stop offset="0.386592" stop-color="#815C97"/>
</radialGradient>
</defs>
</svg>
