<svg width="77" height="75" viewBox="0 0 77 75" fill="none" xmlns="http://www.w3.org/2000/svg">
<g filter="url(#filter0_b_674_317)">
<path d="M0 4.81994C0 3.1328 0 2.28923 0.328338 1.64483C0.617153 1.078 1.078 0.617153 1.64483 0.328338C2.28923 0 3.1328 0 4.81994 0H71.6271C73.3143 0 74.1578 0 74.8022 0.328338C75.3691 0.617153 75.8299 1.078 76.1187 1.64483C76.4471 2.28923 76.4471 3.1328 76.4471 4.81994V69.3451C76.4471 71.0322 76.4471 71.8758 76.1187 72.5202C75.8299 73.0871 75.3691 73.5479 74.8022 73.8367C74.1578 74.1651 73.3143 74.1651 71.6271 74.1651H4.81994C3.1328 74.1651 2.28923 74.1651 1.64483 73.8367C1.078 73.5479 0.617153 73.0871 0.328338 72.5202C0 71.8758 0 71.0323 0 69.3451V4.81994Z" fill="#633181" fill-opacity="0.85"/>
<path d="M0.326401 4.81994C0.326401 3.97099 0.326655 3.3539 0.366359 2.86794C0.405752 2.38579 0.482347 2.06153 0.619164 1.79301C0.876685 1.2876 1.2876 0.876685 1.79301 0.619164C2.06153 0.482347 2.38579 0.405752 2.86794 0.366359C3.3539 0.326655 3.97098 0.326401 4.81994 0.326401H71.6271C72.4761 0.326401 73.0932 0.326655 73.5791 0.366359C74.0613 0.405752 74.3855 0.482347 74.654 0.619164C75.1595 0.876685 75.5704 1.2876 75.8279 1.79302C75.9647 2.06153 76.0413 2.38579 76.0807 2.86794C76.1204 3.3539 76.1207 3.97098 76.1207 4.81994V69.3451C76.1207 70.1941 76.1204 70.8112 76.0807 71.2971C76.0413 71.7793 75.9647 72.1035 75.8279 72.372C75.5704 72.8774 75.1595 73.2884 74.654 73.5459C74.3855 73.6827 74.0613 73.7593 73.5791 73.7987C73.0932 73.8384 72.4761 73.8387 71.6271 73.8387H4.81994C3.97098 73.8387 3.3539 73.8384 2.86794 73.7987C2.38579 73.7593 2.06153 73.6827 1.79301 73.5459C1.2876 73.2884 0.876685 72.8774 0.619163 72.372C0.482347 72.1035 0.405752 71.7793 0.366359 71.2971C0.326655 70.8112 0.326401 70.1941 0.326401 69.3451V4.81994Z" stroke="url(#paint0_radial_674_317)" stroke-opacity="0.8" stroke-width="0.652802"/>
</g>
<defs>
<filter id="filter0_b_674_317" x="-4.18397" y="-4.18397" width="84.815" height="82.533" filterUnits="userSpaceOnUse" color-interpolation-filters="sRGB">
<feFlood flood-opacity="0" result="BackgroundImageFix"/>
<feGaussianBlur in="BackgroundImage" stdDeviation="2.09199"/>
<feComposite in2="SourceAlpha" operator="in" result="effect1_backgroundBlur_674_317"/>
<feBlend mode="normal" in="SourceGraphic" in2="effect1_backgroundBlur_674_317" result="shape"/>
</filter>
<radialGradient id="paint0_radial_674_317" cx="0" cy="0" r="1" gradientUnits="userSpaceOnUse" gradientTransform="translate(2.61805 1.30115) rotate(50.9167) scale(99.4564 91.3138)">
<stop stop-color="#E8E6EB"/>
<stop stop-color="#E8E6EB"/>
<stop offset="0.015625" stop-color="#E8E6EB"/>
<stop offset="0.386592" stop-color="#815C97"/>
</radialGradient>
</defs>
</svg>
