<svg width="18" height="18" viewBox="0 0 18 18" fill="none" xmlns="http://www.w3.org/2000/svg">
<path d="M0 15.1004C0 16.6034 1.14929 17.7526 2.6522 17.7526H15.0292C16.5321 17.7526 17.6814 16.6034 17.6814 15.1004V8.0279H0V15.1004ZM15.0292 1.83942H13.261V0.955357C13.261 0.424916 12.9074 0.0712891 12.377 0.0712891C11.8465 0.0712891 11.4929 0.424916 11.4929 0.955357V1.83942H6.18848V0.955357C6.18848 0.424916 5.83485 0.0712891 5.30441 0.0712891C4.77397 0.0712891 4.42034 0.424916 4.42034 0.955357V1.83942H2.6522C1.14929 1.83942 0 2.98871 0 4.49163V6.25976H17.6814V4.49163C17.6814 2.98871 16.5321 1.83942 15.0292 1.83942Z" fill="white"/>
</svg>
