<svg width="24" height="19" viewBox="0 0 24 19" fill="none" xmlns="http://www.w3.org/2000/svg">
<path d="M10.3814 18.1348C10.3814 18.1348 8.94043 18.1348 8.94043 16.6938C8.94043 15.2528 10.3814 10.9298 16.1454 10.9298C21.9094 10.9298 23.3505 15.2528 23.3505 16.6938C23.3505 18.1348 21.9094 18.1348 21.9094 18.1348H10.3814ZM16.1454 9.48879C17.292 9.48879 18.3915 9.03333 19.2023 8.22261C20.013 7.41189 20.4684 6.31231 20.4684 5.16578C20.4684 4.01925 20.013 2.91967 19.2023 2.10895C18.3915 1.29823 17.292 0.842773 16.1454 0.842773C14.9989 0.842773 13.8993 1.29823 13.0886 2.10895C12.2779 2.91967 11.8224 4.01925 11.8224 5.16578C11.8224 6.31231 12.2779 7.41189 13.0886 8.22261C13.8993 9.03333 14.9989 9.48879 16.1454 9.48879Z" fill="white"/>
<path fill-rule="evenodd" clip-rule="evenodd" d="M7.81021 18.1343C7.59659 17.6845 7.49006 17.1913 7.49896 16.6933C7.49896 14.7408 8.47884 12.7306 10.2887 11.3328C9.38536 11.0545 8.44418 10.9183 7.49896 10.9293C1.73495 10.9293 0.293945 15.2523 0.293945 16.6933C0.293945 18.1343 1.73495 18.1343 1.73495 18.1343H7.81021Z" fill="white"/>
<path d="M6.77926 9.4887C7.73471 9.4887 8.65102 9.10915 9.32662 8.43355C10.0022 7.75795 10.3818 6.84164 10.3818 5.8862C10.3818 4.93075 10.0022 4.01444 9.32662 3.33884C8.65102 2.66324 7.73471 2.28369 6.77926 2.28369C5.82382 2.28369 4.90751 2.66324 4.23191 3.33884C3.55631 4.01444 3.17676 4.93075 3.17676 5.8862C3.17676 6.84164 3.55631 7.75795 4.23191 8.43355C4.90751 9.10915 5.82382 9.4887 6.77926 9.4887Z" fill="white"/>
</svg>
