<?xml version="1.0" standalone="yes"?>
<svg xmlns="http://www.w3.org/2000/svg" width="512" height="512">
<path style="fill:#030405; stroke:none;" d="M0 0L0 512L512 512L512 0L0 0z"/>
<path style="fill:#e3402a; stroke:none;" d="M102 69C109.717 71.281 118.982 70 127 70L176 70C184.473 70 196.427 67.7882 204 72L204 69C218.709 62.8763 232.472 55.9669 248 51.8843C293.609 39.8926 339.599 44.1942 383 62C371.433 46.2849 350.105 35.3047 333 26.7531C276.586 -1.4505 206.175 0.410706 151 30.6944C133.663 40.2101 113.56 52.5899 102 69z"/>
<path style="fill:#cb535b; stroke:none;" d="M284 45L284 46L319 46L284 45M274 46L274 47L281 47L274 46z"/>
<path style="fill:#a12d34; stroke:none;" d="M205 70L205 71C235.4 65.1046 263.005 62.2323 293 72.6952C305.975 77.2214 318.046 88.3766 331 91.581C338.628 93.4678 348.163 92 356 92L407 92C396.449 66.8232 374.848 57.1948 350 51.1296C304.383 39.9951 245.16 43.5147 205 70z"/>
<path style="fill:#cb535b; stroke:none;" d="M322 46L322 47L328 47L322 46M268 47L268 48L273 48L268 47M330 47L330 48L335 48L330 47M262 48L262 49L266 49L262 48M337 48L337 49L341 49L337 48M257 49L257 50L261 50L257 49M342 49L342 50L345 50L342 49M253 50L253 51L256 51L253 50M347 50L347 51L350 51L347 50M249 51L249 52L252 52L249 51M351 51L351 52L354 52L351 51M245 52L245 53L248 53L245 52M355.667 52.3333L356.333 52.6667L355.667 52.3333M242 53L242 54L245 54L242 53M358 53L358 54L361 54L358 53M238 54L238 55L241 55L238 54M362.667 54.3333L363.333 54.6667L362.667 54.3333M235 55L235 56L238 56L235 55M365.667 55.3333L366.333 55.6667L365.667 55.3333M232 56L232 57L235 57L232 56M368.667 56.3333L369.333 56.6667L368.667 56.3333M230.667 57.3333L231.333 57.6667L230.667 57.3333M370 57L370 58L373 58L370 57M227 58L227 59L230 59L227 58M373.667 58.3333L374.333 58.6667L373.667 58.3333M222 60L222 61L227 60L222 60M376.667 59.3333L377.333 59.6667L376.667 59.3333M378.667 60.3333L379.333 60.6667L378.667 60.3333M220.667 61.3333L221.333 61.6667L220.667 61.3333M381 61L382 62L381 61M215 63L215 64L220 63L215 63M213.667 64.3333L214.333 64.6667L213.667 64.3333M211.667 65.3333L212.333 65.6667L211.667 65.3333z"/>
<path style="fill:#e3402a; stroke:none;" d="M233 65L233 66L236 66L233 65z"/>
<path style="fill:#030405; stroke:none;" d="M236 65.4244C216.143 68.0635 196.699 71.9882 179 81.8619C120.019 114.766 91.0858 185.661 112.515 250C124.763 286.77 150.423 308.279 179 332.424C197.369 347.945 215.763 363.457 234 379.13C238.192 382.733 248.135 394.78 254 394.079C259.892 393.374 267.015 383.003 270.999 379C285.287 364.643 298.768 349.407 313.004 335C343.685 303.95 374.281 278.903 383.789 234C402.026 147.874 328.008 53.196 236 65.4244z"/>
<path style="fill:#e3402a; stroke:none;" d="M257 65L257 66L261 66L257 65z"/>
<path style="fill:#cb535b; stroke:none;" d="M209.667 66.3333L210.333 66.6667L209.667 66.3333z"/>
<path style="fill:#e3402a; stroke:none;" d="M227 66L228 67L227 66M266.667 66.3333L267.333 66.6667L266.667 66.3333z"/>
<path style="fill:#cb535b; stroke:none;" d="M204 69L204 70L209 68L204 69z"/>
<path style="fill:#e3402a; stroke:none;" d="M221 67L222 68L221 67M272.667 67.3333L273.333 67.6667L272.667 67.3333M216 68L217 69L216 68M277.667 68.3333L278.333 68.6667L277.667 68.3333z"/>
<path style="fill:#cb535b; stroke:none;" d="M110 242C108.345 229.71 104.812 217.531 105.054 205C105.846 163.927 124.706 126.434 155 99.1705C163.795 91.2556 174.372 84.4388 185 79.2592C190.5 76.5791 199.478 75.1615 203 70L127 70C120.083 70 104.676 67.0625 99.1698 71.3572C90.3443 78.2414 82.9565 90.5283 77.2029 100C59.1258 129.759 51.7363 159.915 47.7145 194C46.367 205.42 46.9503 217.623 48.5795 229C49.0433 232.239 48.7682 238.771 51.5995 240.972C55.0471 243.652 63.8366 242 68 242L110 242z"/>
<path style="fill:#e3402a; stroke:none;" d="M281.667 69.3333L282.333 69.6667L281.667 69.3333M207 70L208 71L207 70M284.667 70.3333L285.333 70.6667L284.667 70.3333M288.667 71.3333L289.333 71.6667L288.667 71.3333M291.667 72.3333L292.333 72.6667L291.667 72.3333M393 72L394 73L393 72M294.667 73.3333L295.333 73.6667L294.667 73.3333M296.667 74.3333L297.333 74.6667L296.667 74.3333M299.667 75.3333L300.333 75.6667L299.667 75.3333M301.667 76.3333L302.333 76.6667L301.667 76.3333M304 77L305 78L304 77M306 78L307 79L306 78M398 78L399 79L398 78M308 79L309 80L308 79M399 79L400 80L399 79M310 80L311 81L310 80M312 81L313 82L312 81M314 82L315 83L314 82M401 82L402 83L401 82M316 83L317 84L316 83M402 83L403 84L402 83M317.667 84.3333L318.333 84.6667L317.667 84.3333M403 84L404 85L403 84M319 85L320 86L319 85M321 86L322 87L321 86M404 86L405 87L404 86M322.667 87.3333L323.333 87.6667L322.667 87.3333M405 87L407 92L330 92C334.96 98.4854 342.291 103.08 347.961 109C357.324 118.777 365.236 130.022 371.514 142C395.891 188.51 389.922 244.793 359.572 287C346.628 305.001 328.487 318.331 313.004 334C298.104 349.079 283.988 365.006 269 380C265.68 383.321 258.191 393.993 253 393.373C249.435 392.947 245.586 388.231 243 386C235.377 379.422 227.664 372.951 220 366.421C190.155 340.994 153.085 317.318 130.438 285C124.346 276.306 119.386 266.844 115.449 257C113.936 253.217 112.927 245.467 109.487 243.028C105.78 240.399 97.3563 242 93 242L51 242C55.9027 303.607 105.15 345.714 148 383.285C183.989 414.84 218.948 447.528 255 479L256 479C286.133 449.117 315.693 418.69 345.039 388C367.425 364.589 392.634 342.893 410.971 316C441.42 271.344 451.612 213.581 439.65 161C434.147 136.81 423.821 104.249 405 87M324 88L325 89L324 88M325.667 89.3333L326.333 89.6667L325.667 89.3333M327 90L328 91L327 90M243 119L232 121L226 99C221.427 100.058 206.337 102.28 204.788 107.278C201.954 116.418 214.189 121.953 220 125.397C240.043 137.274 262.828 154.984 285 162C288.384 155.576 301.985 139.395 300.183 132.213C297.753 122.528 276.054 122.92 269.278 118.686C263.299 114.95 260.533 97.6283 259 91C254.406 91.4011 239.551 93.5739 237.697 98.419C235.737 103.54 241.793 113.783 243 119M328.667 91.3333L329.333 91.6667L328.667 91.3333z"/>
<path style="fill:#cb535b; stroke:none;" d="M208 118L210 129C187.745 133.016 164.044 160.763 159 182L196 203C199.643 175.971 225.276 153.511 253 154.259C264.424 154.568 273.266 161.086 284 163L284 162L208 118z"/>
<path style="fill:#e3402a; stroke:none;" d="M159 182C139.481 226.1 169.482 283.127 213 298.305C225.866 302.792 238.548 303.064 252 302.999C256.358 302.978 264.78 299.94 268.581 302.117C273.064 304.686 274.908 316.278 276 321L298 315C296.626 304.802 287.616 294.211 300 289C301.598 293.913 302.969 306.054 307.51 308.932C311.988 311.771 324.327 305.52 329 304C327.094 295.761 324.616 281.146 319.157 274.61C314.827 269.425 305.824 266.032 300 262.719C296.111 260.507 290.628 255.836 286 255.836C280.199 255.836 272.717 261.862 267 263.653C251.019 268.66 233.658 266.452 220 256.51C208.547 248.174 200.897 235.707 197.654 222C196.395 216.675 197.714 207.858 194.972 203.329C189.919 194.981 168.049 185.313 159 182z"/>
<path style="fill:#cb535b; stroke:none;" d="M304 230L286 255C293.41 259.888 301.321 264.119 309 268.576C311.678 270.13 315.684 273.406 318.961 272.978C327.605 271.849 335.561 252.164 338 245L304 230z"/>
<path style="fill:#5e2d3c; stroke:none;" d="M31 488C64.9576 501.081 107.168 498.47 143 500.039C219.025 503.368 295.019 500.122 371 500C397.623 499.957 424.567 497.32 451 494.155C459.2 493.173 474.745 493.113 479 485C462.086 475.385 436.966 476.217 418 474.91C382.146 472.441 345.967 470 310 470C292.616 470 267.132 464.198 256 480C241.957 466.247 224.499 470 206 470C165.201 470 122.47 470.259 82 475.576C69.6635 477.196 57.2976 477.916 45 480.084C39.3865 481.074 32.8186 481.955 31 488z"/>
<path style="fill:#a12d34; stroke:none;" d="M246 471L247 472L246 471M247 472L248 473L247 472M262 472L263 473L262 472M248 473L249 474L248 473M261 473L262 474L261 473M260 474L261 475L260 474M259 475L260 476L259 475M252 476L253 477L252 476M258 476L259 477L258 476M253 477L254 478L253 477M257 477L258 478L257 477M254 478L255 479L254 478M256 478L257 479L256 478M255 479L256 480L255 479z"/>
</svg>
