<svg width="48" height="37" viewBox="0 0 48 37" fill="none" xmlns="http://www.w3.org/2000/svg">
<path d="M40.6338 3.06864C37.5739 1.6504 34.294 0.602136 30.8641 0.00606383C30.8335 3.71658e-05 30.8019 0.00392097 30.7736 0.0171782C30.7453 0.0304354 30.7217 0.0524101 30.7061 0.080059C30.2861 0.838509 29.8181 1.82717 29.4901 2.60823C25.8524 2.04964 22.1541 2.04964 18.5164 2.60823C18.1511 1.74261 17.7391 0.898577 17.2825 0.080059C17.267 0.0520697 17.2436 0.0295979 17.2153 0.0156424C17.1871 0.00168681 17.1554 -0.00308892 17.1245 0.0019528C13.6966 0.598025 10.4167 1.64629 7.35475 3.06659C7.32841 3.07794 7.30607 3.09731 7.29075 3.12208C1.06693 12.5256 -0.63902 21.6969 0.198956 30.7531C0.201287 30.7753 0.207986 30.7967 0.218645 30.8162C0.229303 30.8356 0.243698 30.8526 0.260954 30.8661C3.89363 33.5843 7.94541 35.6549 12.2466 36.9913C12.2766 37.0008 12.3087 37.0008 12.3386 36.9912C12.3686 36.9817 12.3951 36.9631 12.4146 36.9379C13.3402 35.6657 14.1603 34.316 14.8665 32.9031C14.8763 32.8838 14.882 32.8625 14.8831 32.8407C14.8842 32.819 14.8808 32.7972 14.873 32.777C14.8652 32.7567 14.8533 32.7384 14.838 32.7233C14.8228 32.7081 14.8045 32.6966 14.7845 32.6893C13.4926 32.1893 12.2408 31.5859 11.0406 30.8846C11.0191 30.872 11.0009 30.854 10.9878 30.8324C10.9746 30.8107 10.9669 30.7861 10.9653 30.7606C10.9637 30.7351 10.9683 30.7097 10.9787 30.6865C10.989 30.6633 11.0048 30.6431 11.0246 30.6277C11.2766 30.4366 11.5286 30.2372 11.7686 30.0378C11.7902 30.0199 11.8162 30.0085 11.8438 30.0048C11.8713 30.0012 11.8993 30.0055 11.9246 30.0173C19.7784 33.643 28.2841 33.643 36.0459 30.0173C36.0713 30.0048 36.0996 30 36.1275 30.0032C36.1554 30.0065 36.1819 30.0178 36.2039 30.0358C36.4439 30.2372 36.6939 30.4366 36.9479 30.6277C36.9679 30.6428 36.984 30.6627 36.9947 30.6857C37.0053 30.7087 37.0103 30.734 37.0091 30.7595C37.0079 30.785 37.0006 30.8097 36.9878 30.8315C36.9751 30.8534 36.9572 30.8716 36.9359 30.8846C35.7399 31.5917 34.496 32.1898 33.19 32.6873C33.1699 32.6947 33.1517 32.7065 33.1364 32.7218C33.1211 32.7372 33.1092 32.7557 33.1015 32.7761C33.0937 32.7965 33.0903 32.8184 33.0914 32.8403C33.0925 32.8622 33.0982 32.8836 33.108 32.9031C33.828 34.3151 34.652 35.6594 35.5579 36.9358C35.5768 36.962 35.603 36.9816 35.6331 36.9919C35.6631 37.0022 35.6956 37.0027 35.7259 36.9934C40.0345 35.6607 44.0929 33.5891 47.7296 30.8661C47.7473 30.8534 47.7622 30.8369 47.7733 30.8178C47.7843 30.7986 47.7912 30.7773 47.7936 30.7552C48.7935 20.2848 46.1176 11.1876 40.6958 3.12619C40.6825 3.1 40.6605 3.07957 40.6338 3.06864ZM16.0405 25.2384C13.6766 25.2384 11.7266 23.0412 11.7266 20.3465C11.7266 17.6498 13.6386 15.4546 16.0405 15.4546C18.4604 15.4546 20.3924 17.6683 20.3544 20.3465C20.3544 23.0432 18.4424 25.2384 16.0405 25.2384ZM31.99 25.2384C29.6241 25.2384 27.6762 23.0412 27.6762 20.3465C27.6762 17.6498 29.5861 15.4546 31.99 15.4546C34.41 15.4546 36.3419 17.6683 36.3039 20.3465C36.3039 23.0432 34.412 25.2384 31.99 25.2384Z" fill="white"/>
</svg>
