<?xml version="1.0" standalone="yes"?>
<svg xmlns="http://www.w3.org/2000/svg" width="2075" height="1688">
<path style="fill:#ffffff; stroke:none;" d="M0 0L0 1455C42.3398 1455 89.6361 1448.52 126 1474.92C190.876 1522.02 182.683 1630.51 112 1667.68C78.6716 1685.21 36.3335 1679 0 1679L0 1688L1271 1688L1234.04 1649L1171.04 1583L1129.04 1539L1105 1515L1105 1679L1076 1679L1076 1445L1117.01 1487L1210.99 1585L1244 1619L1244 1455L1272 1455L1272 1688L2075 1688L2075 1679L1955 1679L1955 1455L2075 1455L2075 0L722 0L722 1C744.288 4.00415 763.509 22.804 766.866 45C768.189 53.7505 764.142 66.0309 768.179 73.9961C773.151 83.8053 790.82 89.0187 800 94.1396C806.405 97.7125 816.348 106.417 824 105.677C831.943 104.91 837.814 93.5095 842.438 88C847.258 82.2571 856.038 75.6301 857.591 68C859.161 60.2881 852.382 52.8119 852.039 45C851.161 24.9767 869.768 6.07141 889 3.30017C903.726 1.17822 918.322 7.6814 927.671 19C933.124 25.6014 934.342 35.9083 944 37.6705C962.214 40.9938 981.558 41.3251 1000 43.1689C1017.96 44.9644 1036.93 48.3 1055 47.402C1070.4 46.6366 1078.97 29.6824 1096 36.1296C1111.68 42.0658 1107.83 58.2137 1118.19 67.4714C1133.25 80.9264 1155.54 90.2887 1173 100.424C1185.9 107.909 1199.04 118.77 1213 124.006C1224.96 128.49 1236.75 113.236 1247 108.666C1268.21 99.2083 1292.38 102.182 1311 115.924C1328.8 129.056 1340.42 151.767 1339.98 174C1339.73 186.74 1326.62 201.347 1337.1 211.829C1347.37 222.094 1359.98 230.643 1371 240.13C1376.44 244.808 1382.56 251.663 1390 252.785C1399.93 254.283 1409.44 245.696 1419 243.669C1442.81 238.62 1467.79 253.003 1478.74 274C1486.56 289.01 1488.96 307.376 1481.51 323C1477.07 332.29 1463.46 340.81 1466.8 352C1469.4 360.707 1475.59 368.95 1479.74 377C1488.01 393.022 1496.11 409.142 1504.69 425C1510.83 436.358 1515.1 451.049 1523.53 460.895C1529.49 467.859 1539.28 465.984 1547 469.519C1561.43 476.126 1567.69 492.057 1566.96 507C1566.24 521.685 1554.28 533.641 1540 535.7C1532.58 536.769 1525.21 535.042 1518 537.711C1510.23 540.585 1506.28 546.871 1501.25 553C1496.6 558.663 1486.89 567.814 1489.23 576C1491.07 582.468 1497.44 587.442 1502 592L1531 621C1535.44 625.443 1540.41 632.26 1547 633.376C1556.81 635.038 1568.46 626.34 1579 626.339C1599.18 626.338 1622.85 638.577 1630.54 658C1634.19 667.228 1633.76 679.228 1632.83 689C1630.08 717.736 1608.83 743.07 1578 740.911C1567.34 740.164 1555.35 731.067 1545 733.395C1539.19 734.701 1535.01 739.989 1531 744C1523.19 751.803 1515.08 759.386 1507 766.911C1500.5 772.961 1485.86 781.735 1484.3 791C1482.9 799.303 1494.19 807.336 1498.92 813C1503.55 818.545 1508.09 825.885 1515 828.772C1522.18 831.771 1527.97 826.361 1535 827.483C1552.53 830.281 1564.23 851.49 1562.91 868C1561.89 880.681 1550.14 893.784 1538 897.073C1531.29 898.889 1523.96 896.249 1518.93 902.189C1502.36 921.76 1491.65 950.586 1479.14 973C1472.16 985.501 1460.32 1000.08 1456.84 1014C1454.55 1023.19 1467.36 1032.91 1470.77 1041C1480.31 1063.66 1472.72 1091.08 1454 1106.67C1440.26 1118.12 1420.09 1122.41 1403 1117.28C1396 1115.18 1387.38 1107.84 1380 1108.58C1373.19 1109.26 1366.88 1116.79 1362 1121C1350.3 1131.09 1337.5 1139.97 1326.02 1150.29C1313.59 1161.45 1325.99 1178.87 1325.99 1193C1325.99 1216.46 1311.89 1238.68 1292 1250.55C1273.97 1261.3 1251.27 1263.44 1232 1254.69C1220.16 1249.31 1210.21 1232.86 1196 1238.48C1177.02 1245.98 1158.87 1259.23 1141 1269.14C1128.79 1275.91 1113.87 1281.61 1103.02 1290.39C1090.97 1300.14 1095.08 1318.02 1077 1323.56C1060.31 1328.67 1049.1 1310.39 1033 1308.29C1017.48 1306.27 999.542 1311.35 984 1312.83C967.572 1314.39 950.257 1311.88 934 1314.44C915.885 1317.29 916.819 1331.85 904.96 1341.61C894.114 1350.53 873.583 1347.63 861 1344.08C857.077 1342.97 853.349 1341.1 850.001 1338.78C838.437 1330.78 833.967 1317.53 836.286 1304C837.578 1296.47 841.019 1289.9 839.786 1282C838.545 1274.05 831.293 1269.06 826.76 1263C821.823 1256.4 817.239 1246.99 808 1246.11C800.676 1245.42 794.926 1249.57 789 1253.19C777.119 1260.45 756.478 1264.76 751.388 1279C746.346 1293.1 751.962 1307.08 743.536 1321C727.959 1346.72 699.737 1348 673 1342.33C656.929 1338.92 640.665 1326.95 637.468 1310C634.039 1291.83 640.587 1275.31 622.996 1262.29C606.437 1250.03 585.664 1242.01 568 1231.19C560.108 1226.35 550.439 1217.49 541 1216.37C533.168 1215.45 525.916 1223.35 519 1226.07C505.037 1231.58 488.434 1229.77 476 1221.48C443.072 1199.51 445.41 1147.72 485 1133.7C510.414 1124.7 538.713 1137.36 547.91 1163C551.736 1173.67 547.701 1186.28 554.649 1195.99C560.084 1203.57 570.137 1207.48 578 1212C593.755 1221.05 609.416 1230.26 625 1239.6C632.83 1244.3 641.667 1251.51 651 1252C646.861 1236.04 629.873 1219.63 620.67 1206C600.832 1176.62 579.903 1147.93 559.424 1119C551.22 1107.41 543.331 1090.09 531.961 1081.43C523.755 1075.19 506.964 1082.61 497 1081.91C472.177 1080.17 450.342 1059.45 444.156 1036C439.04 1016.6 443.276 993.922 457.174 979.039C466.483 969.07 483.249 965.032 482.946 949C481.709 883.574 481.409 817.537 483.015 752C483.932 714.549 487.057 675.367 484.892 638C484.272 627.293 473.851 624.215 467 617.907C457.281 608.959 450.079 596.579 450.079 583C450.079 553.119 484.317 547.275 484.985 520C485.597 495.033 483.947 469.949 485.039 445C485.861 426.237 489.914 402.413 485.467 384C482.891 373.335 470.044 368.013 463.465 360C450.897 344.692 448.811 324.789 453.236 306C459.567 279.119 484.474 262.609 511 259.63C520.068 258.611 527.329 264.967 536 264.802C547.679 264.579 557.367 245.913 559.482 236C561.516 226.465 557.025 206.729 545.996 203.708C538.313 201.604 525.034 211.867 516 211.981C485.692 212.365 463.094 182.878 467.3 154C470.165 134.332 487.846 117.755 507 113.669C516.659 111.608 527.338 113.219 536 117.901C541.993 121.141 547.769 127.389 555 127.398C564.1 127.41 574.384 119.195 582 114.85C601.697 103.613 624.876 94.79 642.999 81.2393C657.077 70.7133 650.814 56.7251 653.465 42C657.265 20.8851 677.558 2.75378 699 1L680 0L639 0L496 0L0 0z"/>
<path style="fill:#0179ac; stroke:none;" d="M481 1078L501.6 1025L543 921L542 921C534.325 931.685 526.409 944.743 516.711 953.657C512.548 957.483 505.96 958.925 501.148 955.272C494.683 950.366 499.109 940.233 499.871 933.911C501.974 916.462 500 897.583 500 880C500 803.247 496.682 725.67 500.039 649C500.281 643.483 499.486 633.42 504.225 629.728C509.173 625.874 516.59 626.643 521.911 622.892C528.664 618.131 532.561 611.093 542 613.789C551.469 616.494 560.234 623.784 569 628.244C572.849 630.202 577.906 632.021 580.084 636.043C582.849 641.149 578.065 649.913 576.576 655C572.451 669.085 567.514 682.944 563.28 697C561.58 702.643 560.374 711.541 555.775 715.566C551.259 719.521 542.65 718.166 537 719.503C525.68 722.181 515.792 728.849 509.877 739C489.626 773.749 516.13 813.819 556 809.829C581.845 807.244 597.457 782.479 594.826 758C593.932 749.672 586.372 741.322 587.623 733C589.276 722.001 602.163 710.618 608.627 702C616.07 692.075 629.737 662.931 644 668L672 597L671 597C663.238 607.805 654.991 618.253 647.151 629C643.609 633.856 640.148 640.76 634.91 643.976C626.198 649.325 602.606 633.966 600.662 625C598.857 616.675 604.862 604.917 607.141 597C614.033 573.065 620.155 545.558 630.649 523.001C634.642 514.419 643.662 515.027 651 511.175C660.754 506.055 665.536 496.63 666.331 486C667.935 464.549 649.042 448.18 628 452.669C608.234 456.886 598.192 478.634 606.349 497C609.41 503.893 618.369 509.354 618.851 517C619.301 524.133 614.808 532.232 612.859 539C607.557 557.411 601.588 575.775 595.67 594C593.407 600.967 592.334 613.53 586.606 618.526C581.156 623.281 569.018 613.643 564 610.861C557.571 607.298 545.26 603.567 542.618 595.996C540.272 589.273 544.138 580.265 542.471 573C541.077 566.925 535.661 561.45 536.369 555C538.144 538.815 555.458 519.566 563.95 506C580.706 479.231 596.951 452.079 613.2 425C620.537 412.771 630.962 400.312 636 387L637 387C640.09 398.298 646.83 408.412 651.691 419C660.92 439.098 670.413 459.191 680.248 479C685.568 489.717 694.937 503.091 696.656 515C697.952 523.977 687.467 531.425 683.89 539C678.623 550.158 679.757 560.207 680 572C687.431 566.93 690.884 549.289 694.2 541C697.741 532.146 708.415 515.499 707.111 506C705.872 496.972 697.178 485.428 693.309 477C682.827 454.17 671.99 431.473 660.753 409C656.142 399.778 645.776 385.4 645.542 375C645.445 370.683 648.685 366.533 650.8 363C656.102 354.145 662.171 338.604 671.04 333.009C680.76 326.876 691.831 328.711 699.351 317.999C703.651 311.874 704.018 303.027 701.957 296C696.925 278.846 686.756 269.906 694.454 251C699.938 237.531 728.492 215.156 741.606 231.044C751.51 243.043 745.355 262.092 745.015 276C744.308 304.866 748.698 336.568 743.535 365C741.631 375.49 731.147 380.606 729.658 391C728.101 401.872 740.072 410.634 741 422L742 422C745.866 407.836 759.073 390.551 759.169 376C759.197 371.791 755.723 368.363 755.586 364C754.711 336.05 757.998 307.931 758 280C758.001 269.418 754.383 250.188 760.738 241.105C766.234 233.251 781.143 234.424 788.911 228.1C794.704 223.384 797.356 216.038 803.043 211.394C809.831 205.853 818.982 206.987 827 208L834 188C826.187 188 812.2 189.551 806.213 183.772C793.254 171.263 807.149 160.705 815.576 151C819.418 146.574 824.747 138.894 831 137.978C837.61 137.01 845.159 143.568 851 146C853.182 141.861 858.849 132.021 857.292 127.329C855.598 122.22 845.565 121.071 848.427 114.004C853.203 102.207 867.754 95.2881 874.925 85.6211C880.425 78.2067 882.976 66.5596 886.4 58C893.188 41.0294 903.903 21.9838 907 4C883.58 2.15149 856.931 9.42053 852.326 37C850.477 48.0712 857.93 55.9854 857.601 66C857.273 75.9781 839.875 90.5582 833.561 97.9993C831.114 100.883 828.011 104.815 824 105.378C818.913 106.092 813.1 101.029 809 98.6034C797.934 92.0555 772.613 84.7278 767.742 72C764.121 62.5372 768.566 50.2316 766.101 40C759.103 10.955 732.215 -0.319702 705 0.00390625C681.603 0.282104 658.599 16.7549 653.669 40C650.036 57.1307 657.321 70.9425 640 82.6404C622.606 94.3879 602.267 102.729 584 113.15C575.976 117.728 565.412 126.261 556 127.019C548.443 127.627 542.302 120.527 536 117.377C525.891 112.322 512.786 111.216 502 114.749C480.145 121.91 466.971 140.354 466.455 163C465.822 190.8 491.76 213.818 519 211.911C527.093 211.344 537.773 202.886 544.999 203.994C554.27 205.414 560.245 223.07 559.956 231C559.558 241.936 549.251 261.327 538 264.307C530.625 266.261 521.707 259.474 514 259.259C493.281 258.681 468.982 272.292 458.879 290C447.305 310.285 447.684 340.232 461.9 359C469.022 368.403 484.209 374.307 485.815 387C489.431 415.59 485 446.228 485 475C485 492.773 488.446 514.804 483.428 532C480.995 540.34 471.025 543.933 465.039 549.3C455.925 557.472 450.433 569.805 450.043 582C449.607 595.654 456.143 608.8 466.001 617.907C472.686 624.082 483.912 627.567 484.775 638C485.65 648.566 484 660.274 484 671C484 697.362 484.191 723.712 483.039 750C480.805 801.019 482 852.978 482 904C482 915.989 481.721 928.015 482.015 940C482.158 945.831 483.882 951.375 481.347 957C475.785 969.343 458.658 974.198 451.09 986C430.933 1017.43 444.974 1065.51 481 1078z"/>
<path style="fill:#018994; stroke:none;" d="M907 5L875 86C887.724 84.3569 902.366 89.9434 914 83.4706C924.147 77.8252 929.166 61.615 940 58.6921C949.493 56.1311 965.106 61.8727 975 62.8302C1003.23 65.5624 1035.06 62.957 1062 73C1053.76 92.0966 1036 109.577 1023.35 126C1019.11 131.497 1013.85 141.534 1006.99 143.901C993.03 148.713 975.893 140.996 961 145.44C953.189 147.77 946.217 152.274 940 157.435C936.672 160.198 932.79 164.921 928 164.473C921.454 163.861 913.617 157.228 908 154C892.487 145.085 875.207 131.966 858 127L851 147C860.342 151.025 869.084 156.797 878 161.694C883.66 164.803 889.385 167.811 895 171C899.379 173.487 922.639 182.632 917.214 189.563C913.485 194.328 898.349 190.456 893 190.089C879.373 189.156 865.627 189.844 852 188.911C847.347 188.592 838.825 185.967 834.699 189.028C830.476 192.16 827.855 203.032 827 208C848.004 208 869.11 210.842 890 212.83C897.427 213.537 907.428 210.866 913.815 215.703C920.685 220.906 922.144 232.772 926.453 240C934.748 253.914 948.493 264.602 964 269.279C979.879 274.067 997.525 273.106 1012 264.546C1020.5 259.519 1030.56 246.419 1041 247.12C1049.84 247.714 1059.05 254.596 1067 258.139C1089.47 268.152 1112.36 282.193 1136 289L1144 269C1130.17 263.242 1116.57 256.581 1103 250.22C1094.06 246.029 1085.07 241.914 1076 238C1067.84 234.478 1055.01 231.188 1049.43 223.957C1045.76 219.192 1045.61 209.457 1051.11 205.938C1057.47 201.869 1070.52 202.74 1078 201.845C1099.32 199.293 1120.64 197.21 1142 195.17C1150.16 194.39 1167.83 196.361 1174.35 191.062C1178.99 187.294 1182.02 175.7 1183 170C1147.56 170.731 1112.45 179.996 1077 180C1068.98 180.001 1051.57 186.414 1045 182.382C1038.63 178.467 1028.88 164.883 1029.71 157C1030.61 148.537 1039.41 140.409 1044.35 134C1058.02 116.26 1071.05 90.2079 1095 86.439C1108.37 84.3353 1119.13 92.8799 1130 99.3997C1151.23 112.135 1173.73 129.529 1197 138L1204 118C1186.04 109.605 1169.01 97.6018 1152 87.3997C1141.31 80.9897 1128.62 75.5392 1119.09 67.4714C1108.78 58.7432 1112.29 42.7961 1098 36.5325C1079.76 28.5378 1071.17 46.4269 1055 47.1234C1019.67 48.6449 981.03 42.4174 946 37.8156C936.136 36.5198 934.621 28.1101 929.895 21C924.747 13.2538 916.268 6.65222 907 5z"/>
<path style="fill:#ffffff; stroke:none;" d="M1062 73C1037.45 60.6815 1001.71 65.8783 975 62.7145C965.065 61.5378 948.509 55.7744 939.001 58.6566C925.739 62.6764 922.226 81.6908 907 85.8402C899.366 87.9207 892.605 84.3153 885 84.3403C871.524 84.3846 863.778 94.4813 856.112 103.961C853.041 107.757 845.987 112.259 847.797 117.985C849.354 122.908 855.814 125.549 860 127.745C870.777 133.398 881.409 139.428 892 145.424C901.847 151 916.64 163.812 928 164.731C933.33 165.163 937.27 160.532 941 157.435C947.217 152.274 954.188 147.771 962 145.44C976.873 141.002 992.772 148.239 1006.99 144.308C1013.72 142.444 1018.54 133.183 1022.58 128C1034.86 112.203 1056.31 92.3226 1062 73M1094 86.439C1070.81 90.0898 1058.29 114.73 1045.12 132C1039.83 138.933 1032.07 146.336 1029.8 155C1027.59 163.493 1037.52 179.271 1045 182.968C1052.51 186.677 1070.21 180.003 1079 180C1104.64 179.99 1130.51 174.717 1156 172.169C1168.79 170.89 1183.59 172.462 1196 169.606C1207.4 166.983 1210.4 148.483 1201.96 141.39C1181.55 124.25 1152.91 112.548 1130 98.8002C1118.51 91.9045 1108.06 84.226 1094 86.439M660.98 95.7971C654.05 96.8503 646.18 103.503 640 106.745C622.829 115.751 606.034 125.506 589 134.769C583.052 138.004 569.312 142.562 566.603 149.105C564.277 154.722 565.442 162.072 564.714 168C563.01 181.87 556.296 190.329 562.15 204C563.837 207.938 567.398 220.489 573.029 219.824C580.626 218.926 589.639 200.759 593.884 195C612.175 170.185 630.877 145.662 649.373 121C654.043 114.774 659.49 108.673 663.498 102.001C665.174 99.2123 665.504 95.1095 660.98 95.7971M698 213C718.092 216.14 718.51 193.767 723.09 181C725.714 173.687 730.12 167.358 736.001 162.3C745.232 154.361 754.935 151.234 767 152.015C771.861 152.329 777.152 154.831 782 153.562C789.028 151.724 794.298 143.102 798.925 138C801.661 134.983 806.251 131.07 807.289 127.004C809.248 119.326 791.211 112.989 786 110.255C777.756 105.931 767.428 97.1498 758 96.2561C748.984 95.4015 739.959 106.492 732 109.958C727.098 112.092 720.555 112.037 716.133 114.938C709.948 118.996 711.591 131.475 710.112 138C704.565 162.465 701.657 188.237 698 213z"/>
<path style="fill:#019878; stroke:none;" d="M1204 119C1201.63 123.445 1196.74 131.614 1197.5 136.791C1198.16 141.265 1204.65 143.544 1206.24 148C1212.11 164.398 1194.98 170 1183 170L1175 192C1182.79 191.014 1194.44 186.841 1202 189.742C1213.38 194.109 1219.36 215.467 1229 223.699C1235.86 229.555 1244.12 233.741 1253 235.385C1259.42 236.573 1268 235.695 1272.58 241.109C1279.94 249.81 1280.21 269.996 1282.08 281C1286.28 305.697 1290.96 330.317 1295.25 355C1296.99 365.009 1301.29 376.851 1300.73 387C1300.19 396.608 1290.32 402.286 1285.88 410C1277.46 424.634 1278.35 445.127 1285.81 460C1294.21 476.755 1317.26 489.089 1336 486.816C1343.71 485.88 1353.4 477.418 1361 481.18C1366.77 484.037 1371.5 490.504 1376 495C1388.14 507.141 1399.96 522.112 1414 532C1416.51 527.289 1422.4 517.425 1421.19 512C1420.07 507.007 1413.46 502.456 1410 499C1402.47 491.472 1395.31 483.683 1387.96 476C1384.29 472.157 1378.67 468.222 1376.93 463C1374.42 455.456 1381.99 443.38 1381.99 435C1381.99 427.773 1380.32 420.514 1377.22 414C1375.18 409.73 1370.98 404.979 1371.33 400C1371.65 395.464 1375.54 391.46 1378.13 388C1384.52 379.464 1394.42 357.867 1405 354.693C1410.73 352.974 1419 356.838 1425 356.985C1430.23 357.114 1440.35 354.649 1444.67 357.757C1454.91 365.125 1460.65 387.121 1467 398C1470.7 392.43 1478.38 377.668 1476.58 371C1474.45 363.155 1465.48 355.477 1466.32 347C1466.97 340.488 1475.14 334.341 1478.64 329C1484.47 320.096 1486.12 310.451 1486 300C1485.59 265.474 1454.67 239.556 1421 243.174C1410.86 244.263 1399.91 254.697 1390 252.603C1383.04 251.131 1377.19 244.594 1372 240.13C1360.68 230.386 1347.47 221.624 1337.1 210.911C1327.56 201.051 1339.87 186.292 1340 174C1340.27 147.381 1325.7 122.093 1302 109.784C1285.46 101.195 1265.17 100.901 1248 107.823C1238.7 111.572 1227.74 124.786 1218 124.79C1212.97 124.792 1208.46 120.922 1204 119z"/>
<path style="fill:#ffffff; stroke:none;" d="M684.039 111.047C673.352 116.171 663.2 136.569 656.127 146C633.23 176.528 607.36 206.698 587.094 239C581.643 247.688 586.805 269.022 600 265.362C619.916 259.838 639.547 245.473 658 236.247C666.102 232.196 674.371 228.59 676.76 219C683.588 191.589 683.906 161.901 688.586 134C689.311 129.679 696.079 105.274 684.039 111.047M830 137.746C824.04 139.134 819.361 145.64 815.576 150C807.604 159.181 790.84 174.111 807.105 185.258C813.386 189.562 826.644 188 834 188C852.936 188 872.069 189.21 891 190.039C897.689 190.332 909.584 193.953 915.772 191.243C926.589 186.505 907.125 177.19 904 175.424C886.742 165.675 869.208 156.423 852 146.579C846.211 143.267 837.099 136.094 830 137.746M1192 189.425C1171.01 192.283 1149.99 193.801 1129 196.286C1109.02 198.651 1088.96 200.095 1069 202.87C1063.22 203.673 1051.54 202.38 1048.18 208.144C1039.46 223.084 1057.87 230.381 1068 234.86C1090.44 244.781 1112.71 255.073 1135 265.309C1146.4 270.543 1157.86 277.872 1170 281.214C1179.44 283.813 1184.74 278.033 1193 275.104C1200.57 272.419 1208.81 273.508 1216 276.912C1239.44 288.005 1242.97 316.909 1223.91 333.532C1209.18 346.379 1183.68 342.537 1173.47 326C1168.57 318.072 1168.74 306.521 1160.96 300.638C1143.56 287.483 1116.87 280.432 1097 271.309C1084.32 265.486 1071.53 259.914 1059 253.756C1052.35 250.485 1044.68 245.929 1037 247.225C1028.55 248.649 1021.04 258.075 1014 262.655C1000.21 271.629 983.905 274.312 968 270.116C950.806 265.579 935.586 254.319 926.453 239C922.384 232.175 920.935 220.752 914.671 215.703C908.351 210.609 897.492 213.599 890 212.714C870.582 210.423 850.552 208.229 831 207.996C823.165 207.903 815.766 205.988 808 208.305C798.509 211.136 795.348 222.249 787.961 228.1C780.602 233.929 765.963 233.227 760.738 240.214C754.767 248.198 758 265.572 758 275C758 291.444 758.035 308.577 756.911 325C756.035 337.785 753.608 353.339 755.508 366C757.193 377.232 771.465 381.608 770.855 394C770.261 406.056 756.335 409.432 753.558 420C751.257 428.755 753.526 439.01 752.911 448C751.572 467.539 749.417 488.418 751.094 508C752.02 518.806 763.406 524.128 769.471 532C778.725 544.012 780.701 562.89 775.558 577C765.381 604.919 739.649 616.322 712 607.251C705.133 604.998 697.895 595.454 691 595.457C685.05 595.459 681.522 602.874 678.573 607C671.82 616.445 664.971 625.875 657.789 635C654.355 639.363 648.673 644.402 647.449 650C645.375 659.483 664.526 664.988 671 668.248C682.707 674.143 694.469 683.377 707 687.224C720.908 691.495 739.944 678.655 745.646 700C746.328 702.554 746.714 705.362 746.471 708C744.541 728.93 726.652 720.66 714.004 724.653C707.45 726.722 703.06 734.809 699.13 740C658.139 794.139 617.27 848.401 575.576 902C563.693 917.275 551.815 932.573 540.13 948C534.797 955.04 527.41 961.752 535.189 969.895C547.127 982.392 561.72 977.095 574 969.003C589.952 958.491 605.808 947.714 622 937.576C629.975 932.582 641.684 927.351 647.566 919.907C652.943 913.103 647.77 904.904 645.52 898C642.953 890.124 642.219 881.218 643.289 873C649.163 827.909 699.87 802.908 739 825.616C771.428 844.434 780.96 887.733 758.841 918C751.901 927.497 731.536 935.675 729.348 947C728.252 952.673 730.509 959.387 731.411 965C733.338 977.002 735.248 989.007 737.247 1001C741.349 1025.61 745.465 1050.26 748.718 1075C750.075 1085.32 749.171 1100.08 755.133 1108.96C760.281 1116.62 771.191 1117.44 777.895 1123.47C785.962 1130.73 786.652 1140.29 799 1142.54C821.989 1146.71 847.804 1142.04 871 1142C879.813 1141.99 895.344 1142.29 902.786 1136.99C908.805 1132.71 910.659 1120.36 914.453 1114C923.161 1099.4 937.592 1089.67 954 1085.89C971.188 1081.93 989.282 1083.81 1004 1094.04C1010.63 1098.65 1017.03 1109.38 1025 1111.02C1031.21 1112.3 1038.52 1107.65 1044 1105.28C1057.62 1099.41 1071.35 1093.8 1085 1088C1105.82 1079.15 1132.64 1072.47 1151 1059.21C1159.43 1053.11 1157.1 1044.82 1162.1 1037C1173.95 1018.5 1196.56 1012.17 1213.91 1027.46C1231.98 1043.39 1230.52 1070.74 1209 1083.12C1199.5 1088.59 1188.94 1087.74 1179 1083.94C1173.19 1081.71 1167.53 1077.57 1161 1078.51C1150.92 1079.95 1140.32 1086.6 1131 1090.58C1110.65 1099.26 1090.31 1107.96 1070 1116.72C1060.28 1120.91 1044.64 1124.24 1037.39 1132.21C1020.88 1150.38 1051.27 1153.87 1062 1155.42C1090.58 1159.56 1119.36 1162.52 1148 1166.28C1160.25 1167.89 1175.75 1172.87 1188 1170.78C1195.3 1169.53 1197.62 1162.57 1201.06 1157C1205.63 1149.61 1211.15 1143.06 1218 1137.67C1224.47 1132.58 1232.02 1128.93 1240 1126.9C1247.7 1124.94 1256.21 1124.69 1261.58 1117.96C1269.29 1108.29 1269.22 1088.85 1271.6 1077C1276.5 1052.64 1281.85 1028.36 1286.8 1004C1288.94 993.473 1293.41 981.788 1293.27 971C1293.15 961.88 1282.96 955.646 1278.98 948C1271.81 934.211 1273.21 912.332 1280.88 899C1291.13 881.187 1312.15 872.704 1332 875.289C1339.22 876.23 1347.82 882.497 1355 880.343C1363.62 877.758 1371.45 866.755 1378 860.83C1395.02 845.43 1411.67 829.127 1428 812.996C1433.91 807.153 1444.28 799.924 1447.26 792C1449.36 786.397 1445.32 781.332 1442.28 777C1435.28 767.017 1426.67 755.164 1414 752.519C1407.08 751.073 1401.4 754.534 1395 756.37C1388.04 758.368 1380.18 758.275 1373 757.961C1339.02 756.471 1309.31 725.389 1303.26 693C1294.73 647.273 1335.13 604.078 1380 602.104C1387.71 601.765 1396.84 603.665 1404 606.464C1408.9 608.379 1414.43 612.94 1419.99 611.551C1424.2 610.496 1426.96 606.146 1429.59 603C1435.88 595.453 1449.32 585.523 1452 576C1453.35 571.2 1448.98 567.091 1445.98 564C1437.78 555.547 1429.33 547.328 1421 539L1380 498C1374.6 492.601 1368.28 483.512 1361 480.742C1352.79 477.618 1343.94 485.348 1336 486.674C1322.44 488.938 1305.71 480.875 1296 471.907C1280.22 457.331 1274.98 431.26 1285.32 412C1290.09 403.13 1301.1 397.081 1300.87 386C1300.65 375.484 1297.05 364.362 1295.25 354C1290.96 329.317 1286.28 304.697 1282.08 280C1280.28 269.413 1280.02 248.327 1272.58 240.228C1268.52 235.803 1260.52 236.5 1255 235.565C1246.57 234.136 1238.76 230.553 1232 225.32C1217.76 214.298 1212.32 186.659 1192 189.425M1314 224.028C1307.87 226.386 1297.47 232.024 1296.23 239C1293.79 252.751 1301.23 269.644 1304 283C1308.39 304.226 1311.4 325.7 1315.39 347C1317.09 356.112 1317.82 366.414 1321.48 374.996C1325.2 383.73 1342.25 388.87 1351 385.732C1362.31 381.678 1372.4 360.451 1379.37 351C1382.14 347.25 1385.43 342.967 1384.57 338C1382.34 325.227 1371.2 316.118 1370.18 302C1369.52 292.871 1379.18 279.867 1375.9 272.039C1372.6 264.192 1361.36 257.877 1355 252.586C1345.69 244.841 1336.39 237.072 1327 229.425C1323.49 226.567 1318.91 222.138 1314 224.028M730 225.479C705.948 228.087 685.878 250.334 691.9 275C694.977 287.605 706.313 296.806 702.211 311C696.8 329.721 677.719 324.125 667.529 335.214C660.76 342.579 655.938 353.42 650.8 362C648.478 365.878 645.164 370.266 645.29 375C645.448 380.94 649.791 386.731 652.139 392C658.606 406.511 665.996 420.635 672.781 435C680.353 451.031 688.037 467.035 695.742 483C699.623 491.044 702.401 500.599 709.043 506.892C714.698 512.25 722.576 512.809 730 511.699C739.068 510.344 739.987 503.987 740 496C740.026 479.62 740.586 463.315 740.985 447C741.248 436.265 742.73 423.346 739.557 413C737.378 405.894 729.708 400.673 729.744 393C729.795 381.899 742.091 376.133 743.7 365C747.833 336.391 744.307 305.885 745.015 277C745.333 264.01 754.405 222.833 730 225.479M638 361C643.576 352.735 658.011 337.287 657.703 327C657.312 313.959 642.478 306.762 650.558 292C656.318 281.477 666.592 277.311 670.14 265C670.823 262.63 673.521 256.917 671.223 254.816C668.23 252.081 657.916 259.295 655 260.753C642.927 266.789 631.075 273.209 619 279.247C614.52 281.487 607.374 283.763 605.644 289.015C603.698 294.92 609.824 302.929 612.219 308C619.995 324.462 626.441 346.996 638 361z"/>
<path style="fill:#019878; stroke:none;" d="M1144 270L1136 289C1144.62 294.012 1157.1 296.135 1163.61 304.043C1173.28 315.804 1170.07 331.724 1187 338.522C1222.85 352.921 1253.88 309.815 1224.83 282.301C1216.38 274.299 1202.99 271.206 1192 275.104C1186.16 277.175 1181.54 282.074 1175 281.866C1164.15 281.523 1154.31 272.82 1144 270z"/>
<path style="fill:#ffffff; stroke:none;" d="M587 296.657C569.724 300.797 575.126 310.71 573.711 324C572.521 335.173 570.057 345.416 563.91 355C555.858 367.555 543.35 376.977 529 381.09C522.391 382.985 510.378 381.763 505.279 386.434C500.358 390.941 502 400.021 502 406L502 457L502 505C502 512.762 500.252 520.362 502.251 528C504.446 536.39 515.634 545.731 524.96 543.526C529.628 542.422 531.986 536.768 534.15 533C539.578 523.547 545.385 514.339 551 505C569.9 473.566 589.328 442.45 608.2 411C614.212 400.981 628.95 385.011 628.802 373C628.715 365.842 623.353 358.213 620.247 352C613.645 338.796 607.523 325.346 601.219 312C598.556 306.363 595.087 294.719 587 296.657M1403.01 355.032C1392.42 360.335 1383.6 379.586 1376.63 389C1373.76 392.879 1370.59 396.874 1371.23 402C1372.63 413.213 1381.57 421.765 1381.96 434C1382.26 443.452 1373.22 456.488 1377.32 465C1379.97 470.498 1385.8 474.543 1389.83 479C1400.14 490.398 1411.13 501.128 1422 512L1457 547C1460.76 550.758 1465.87 557.88 1471.96 554.816C1480.46 550.537 1487.73 538.008 1494.07 531C1496.7 528.097 1500.07 525.083 1500.68 521C1501.6 514.855 1496.83 508.495 1497.04 502C1497.38 492.079 1506.13 483.617 1505.36 474C1504.74 466.208 1498.67 458.786 1495.25 452C1486.46 434.558 1476.98 417.466 1468.25 400C1463.04 389.591 1457.45 379.405 1452.25 369C1450.27 365.054 1448.25 358.57 1443.81 356.757C1438.03 354.395 1428.43 357.503 1422 356.714C1416.54 356.043 1408.21 352.432 1403.01 355.032z"/>
<path style="fill:#01a758; stroke:none;" d="M1477 373C1474.5 380.384 1467.11 391.164 1467.97 399C1468.68 405.533 1474.32 412.257 1477.24 418C1485.84 434.906 1498.86 452.913 1504.41 471C1507.15 479.934 1499.02 488.39 1497.46 497C1495.95 505.385 1499.85 511.167 1500.48 519C1501.21 528.127 1483.01 542.502 1477.28 548.996C1474.78 551.833 1471.4 556.572 1467 554.864C1462.04 552.938 1457.68 546.682 1454 543C1443.76 532.764 1433.84 520.339 1422 512C1419.92 517.372 1412.73 528.456 1415.71 534C1421.47 544.73 1435.42 554.375 1444 563C1447.15 566.168 1453.16 570.83 1451.47 576C1448.27 585.764 1434.54 596.113 1427.92 603.999C1425.34 607.068 1422.45 611.426 1418 611.559C1409.78 611.804 1393.81 596.778 1385.82 604.603C1377.59 612.66 1373.68 633.292 1369.4 644C1356.54 676.155 1342.1 708.199 1331 741C1343 749.886 1355.78 756.862 1371 757.911C1378.8 758.448 1387.36 758.437 1395 756.625C1400.69 755.276 1405.9 751.622 1412 752.365C1423.44 753.757 1432.17 764.408 1438.62 773C1441.65 777.027 1446.31 781.969 1447.45 787C1448.57 791.994 1444.13 795.819 1441 799C1432.86 807.254 1424.36 815.041 1416 823.039C1401.32 837.074 1387.06 851.545 1372 865.17C1366.78 869.896 1361.77 877.432 1355 879.975C1348.53 882.406 1339.67 876.158 1333 875.289C1315.02 872.947 1297.35 878.167 1285.19 892.001C1273.17 905.661 1270.61 932.903 1278.98 949C1282.69 956.125 1292.49 962.291 1293.09 970.576C1294.18 985.441 1286.62 1004.46 1283.42 1019C1278.75 1040.26 1274.44 1061.65 1270.2 1083C1268.24 1092.85 1267.89 1104.9 1263.43 1114C1256.8 1127.53 1236.91 1125.93 1225 1132.32C1216.44 1136.92 1209.08 1143.99 1203.67 1152C1200.19 1157.15 1197.78 1164.3 1192.81 1168.2C1183.28 1175.68 1172.01 1164.97 1162.39 1168.69C1157.52 1170.58 1154.77 1183.42 1153 1188C1163.81 1190.01 1203.08 1194.03 1191.82 1214.91C1187.88 1222.22 1173.99 1226.47 1167 1230.42C1155.18 1237.12 1138.1 1243.09 1128.42 1252.61C1122.34 1258.59 1117.43 1274.7 1116 1283C1136.33 1274.49 1155.84 1261.61 1175 1250.72C1182.79 1246.29 1192.82 1237.82 1202 1237.23C1211.61 1236.61 1220.69 1249.57 1229 1253.73C1251.6 1265.03 1280.34 1261.26 1300 1245.71C1317.13 1232.17 1327.97 1210.08 1325.83 1188C1324.99 1179.37 1317.66 1166.16 1320.74 1158C1323.16 1151.58 1330.87 1147.1 1336 1143C1348.15 1133.28 1359.86 1123.02 1372 1113.31C1383.67 1103.99 1394.52 1116.23 1407 1118.54C1429.78 1122.75 1454.48 1113.25 1466.55 1093C1475.37 1078.21 1477.57 1059.32 1471.92 1043C1468.89 1034.25 1457.62 1025.76 1456.89 1017C1456.51 1012.5 1460.24 1007.76 1462.31 1004C1474.62 981.583 1487.38 959.417 1499.69 937C1505.79 925.903 1511.23 911.643 1519.68 902.189C1524.93 896.317 1532.18 898.92 1539 897.073C1550.54 893.947 1561.37 881.948 1562.82 870C1564.83 853.415 1555.79 833.596 1539 828.224C1531.75 825.903 1526.91 830.075 1520 829.718C1511.74 829.292 1506.17 820.717 1501.41 815C1496.88 809.557 1482.82 798.759 1484.57 791C1486.62 781.91 1501.47 772.995 1508 766.911C1517.99 757.604 1531.83 737.624 1545 733.657C1550.91 731.878 1556.61 735.831 1562 737.644C1569.75 740.249 1577.83 741.483 1586 740.911C1624.25 738.23 1638.5 697.095 1632.54 664C1628.32 640.638 1599.73 624.166 1577 626.3C1568.05 627.14 1555.32 634.727 1547 633.022C1540.57 631.705 1535.4 624.396 1531 620L1503 592C1498.34 587.336 1492.02 582.447 1489.63 576.089C1486.81 568.618 1497.02 559.153 1501.25 554C1506.84 547.197 1511.24 540.283 1520 537.363C1538.31 531.258 1557.69 539.382 1565.64 515C1569.42 503.394 1566.92 488.616 1559.47 479.001C1549.49 466.107 1531.64 470.98 1522.79 458.985C1508.22 439.242 1500.13 413.366 1488 392C1484.49 385.81 1482.08 378.029 1477 373z"/>
<path style="fill:#018994; stroke:none;" d="M760 375C753.254 389.421 744.064 407.286 741.329 423C739.522 433.379 740.502 445.438 740.039 456C739.53 467.622 740 479.366 740 491C740 496.001 740.896 502.455 738.062 506.891C731.483 517.188 715.47 510.858 708 506L682.247 570L680.907 583L671.82 597L656 637C665.053 629.631 671.798 617.475 678.573 608C681.403 604.041 684.723 597.032 690.001 595.971C695.669 594.831 703.63 604.41 709 606.535C728.41 614.216 750.902 611.828 764.816 596C775.744 583.567 780.127 567.302 777.561 551C776.214 542.446 772.81 534.401 766.907 528.001C761.451 522.086 752.98 517.491 751.34 509C747.78 490.57 751.635 467.62 752.911 449C753.526 440.008 751.26 429.756 753.558 421C757.431 406.242 781.03 399.425 766.608 381.005C764.71 378.58 762.487 376.757 760 375z"/>
<path style="fill:#ffffff; stroke:none;" d="M636 387C614.127 426.437 588.762 464.524 565.189 503C556.148 517.758 538.992 536.652 536.329 554C535.183 561.466 540.882 567.078 542.471 574C544.147 581.305 540.067 590.218 542.604 596.985C545.327 604.245 557.739 607.896 564 611.424C568.992 614.238 580.976 623.54 586.606 619.243C592.381 614.836 593.525 601.604 595.67 595C601.695 576.444 607.743 557.746 613.141 539C615.23 531.747 619.654 523.707 618.887 516C618.056 507.643 608.404 502.023 605.549 494C598.256 473.509 614.168 451.313 636 452.043C658.583 452.798 674.096 479.007 662.633 499C655.128 512.091 640.517 509.368 632.43 519.109C627.129 525.494 625.925 537.217 623.333 545C617.375 562.891 611.699 580.939 606.28 599C603.992 606.627 599.725 615.905 600.279 624C600.694 630.085 606.137 634.283 611 637.123C616.514 640.344 626.328 647.113 632.985 645.307C639.133 643.639 642.966 635.79 646.424 631C654.708 619.528 663.383 608.32 671.873 597C675.547 592.103 681.457 586.434 681.853 580C682.594 567.955 677.491 558.393 681.52 546C684.807 535.889 697.432 526.603 696.891 516C696.228 503.005 684.852 487.561 679.258 476C670.748 458.412 661.814 440.845 653.861 423C648.808 411.662 643.772 396.62 636 387M1468 592.047C1463.22 594.243 1459.55 600.145 1456.16 604C1451.09 609.748 1440.23 618.005 1439.27 626C1438.35 633.68 1448.4 643.328 1451.73 650C1457.99 662.551 1460.53 677.064 1458.71 691C1457.32 701.667 1452.65 712 1446.95 721C1443.91 725.799 1437.54 731.881 1438.27 738C1439.36 747.1 1455.02 762.274 1461.46 768.671C1464.09 771.272 1467.3 773.089 1471 771.677C1478.73 768.725 1485 759.994 1490.29 754C1497.67 745.633 1506.53 737.687 1515 730.428C1519.86 726.261 1527.93 721.642 1529.55 715C1530.76 710.048 1527.21 705.362 1525.45 701C1522.71 694.214 1521.58 687.303 1522.09 680C1522.7 671.239 1532.36 657.96 1529.89 650C1528.06 644.098 1521.21 639.212 1517 635L1485 603C1481.19 599.191 1474.35 589.132 1468 592.047z"/>
<path style="fill:#019878; stroke:none;" d="M1332 740C1344.93 692.716 1374.7 649.671 1386 602C1356.19 602.003 1327.03 616.204 1312.31 643C1298.89 667.442 1299.06 694.851 1312.87 719C1317.31 726.755 1323.75 736.151 1332 740z"/>
<path style="fill:#ffffff; stroke:none;" d="M533 613.653C527.89 615.255 525.193 619.985 520.961 622.892C515.315 626.769 503.805 625.986 501.188 633.044C498.764 639.579 500 650.006 500 657L500 706L500 873C500 895.848 499.664 918.5 498.054 941.039C497.454 949.44 498.095 958.508 509 957.606C516.416 956.992 520.549 950.412 524.626 945C533.712 932.937 543.013 921.04 552.13 909C589.656 859.437 628.185 810.628 665.626 761C676.508 746.575 687.634 732.323 698.651 718C702.366 713.171 710.218 705.472 703.771 699.789C691.268 688.768 671.624 682.6 657 674.691C651.726 671.839 644.307 665.801 638.001 666.333C631.225 666.905 626.945 676.168 623.371 681C615.445 691.716 607.61 702.477 599.424 713C595.073 718.594 589.011 724.845 587.544 732C585.799 740.513 593.061 748.821 594.535 757C598.04 776.438 587.363 796.266 570 805.367C525.917 828.471 481.228 769.702 515.093 733.001C521.628 725.919 529.55 721.275 539 719.286C543.957 718.243 551.644 719.334 555.775 716.258C559.656 713.367 560.271 707.308 561.67 703C565.554 691.037 569.023 678.934 573 667C575.474 659.575 583.266 644.725 581.084 637.015C579.648 631.941 573.189 629.904 569 627.741C558.928 622.542 545.132 609.848 533 613.653M594.649 644.046C590.502 646.795 589.157 656.528 587.667 661C582.35 676.949 577.015 692.945 572.026 709C570.893 712.645 566.432 727.326 575.961 722.928C581.008 720.599 584.667 713.241 588 709C595.967 698.86 603.555 688.417 611.151 678C614.746 673.07 620.16 667.383 620.743 661.004C621.406 653.746 601.059 639.797 594.649 644.046z"/>
<path style="fill:#018994; stroke:none;" d="M648 656C646.845 658.979 643.946 663.514 644.813 666.787C645.803 670.524 652.906 673.018 656 674.691C666.894 680.583 678.046 686.001 689 691.781C694.636 694.754 708.897 699.665 705.036 708C701.027 716.654 692.871 724.42 687.13 732C673.674 749.764 659.782 767.2 646.374 785C624.667 813.819 602.728 842.523 580.576 871C568.228 886.872 553.736 902.692 543.475 920C531.383 940.396 524.804 965.988 516 988C507.343 1009.65 498.609 1031.26 490.189 1053C488.047 1058.53 480.167 1070.87 481.813 1076.72C483.018 1081 492.414 1081.66 496 1081.91C507.809 1082.74 524.967 1074.74 533.826 1084.04C543.195 1093.88 550.301 1106.85 558.025 1118C572.647 1139.11 587.586 1160.04 602.424 1181C618.067 1203.1 640.507 1227.06 651 1252C641.813 1251.05 632.79 1243.67 625 1239C609.422 1229.65 593.76 1220.46 578 1211.42C569.668 1206.64 559.274 1202.48 553.995 1194C548.953 1185.9 551.123 1176.81 549.535 1168C546.611 1151.78 533.661 1137.6 518 1132.77C476.159 1119.87 434.995 1166.22 459.066 1205C471.5 1225.03 495.518 1234.05 518 1226.78C525.12 1224.48 532.428 1216.37 540 1216.54C550.536 1216.78 564.255 1229.45 573 1234.81C591.072 1245.88 621.979 1254.81 632.651 1274C642.928 1292.48 631.114 1313.42 648.04 1329.91C661.858 1343.37 676.109 1340.28 693 1343.88C698.71 1345.1 711.458 1347.42 716.301 1343.14C722.361 1337.79 724.834 1323.42 727.8 1316C736.828 1293.43 748.589 1270.44 755 1247C750.425 1248.97 745.155 1253.71 740.001 1253.56C735.154 1253.42 732.335 1248.29 728.961 1245.52C721.257 1239.19 704.059 1237.3 699.164 1228.9C691.969 1216.54 693.563 1193.1 691.576 1179C690.073 1168.34 688.789 1157.65 687.271 1147C686.856 1144.09 685.032 1138 688.438 1136.21C694.604 1132.98 704.989 1144.31 707.005 1149C711.455 1159.36 708.349 1169.86 714.966 1180C730.733 1204.16 753.79 1189.45 774 1201L797 1142C786.941 1138.26 785.784 1130.17 778.787 1123.47C771.815 1116.79 760.605 1116.37 755.133 1107.98C749.237 1098.95 750.089 1084.42 748.718 1074C745.641 1050.6 741.777 1027.28 737.92 1004C735.767 991.004 733.594 978.016 731.576 965C730.73 959.547 728.156 952.453 729.587 947C732.114 937.371 746.332 932.589 752.961 925.961C767.182 911.739 773.659 890.835 770.561 871C761.822 815.048 684.789 796.647 653.548 845C645.197 857.925 641.301 873.699 643.289 889C644.437 897.83 653.685 910.943 647.566 918.96C640.903 927.69 627.209 933.658 618 939.424C599.765 950.842 580.506 969.642 560 976.401C550.394 979.567 536.692 974.588 532.362 965C529.435 958.517 540.297 948.713 544 944C559.061 924.832 573.944 905.461 588.626 886C626.463 835.848 664.183 785.395 703 736C706.142 732.002 709.086 727.001 714.004 725.01C719.552 722.764 726.115 725.645 732 724.532C745.268 722.025 749.995 707.597 744.583 696.004C736.813 679.357 721.583 690.796 708.961 687.495C701.5 685.545 694.764 680.352 688 676.781C674.712 669.765 661.299 662.997 648 656z"/>
<path style="fill:#ffffff; stroke:none;" d="M1463 808.762C1455 811.473 1446.04 823.121 1440 829.015C1424.14 844.487 1407.68 859.347 1392 875C1385.56 881.431 1374.04 888.256 1370.74 897C1367.61 905.321 1376.37 917.609 1375.96 927C1375.42 939.29 1366.52 947.664 1364.41 959C1362.93 966.932 1371.29 974.933 1375.33 981C1380.49 988.729 1387.81 1006.7 1398 1008.27C1404.07 1009.21 1410.66 1005 1417 1005C1422.04 1005 1428.21 1007.8 1433 1006.09C1442.67 1002.64 1447.35 988.196 1452 980C1462.9 960.802 1473.09 941.198 1484 922C1489.19 912.864 1498.23 901.54 1499.79 891C1501.1 882.096 1493.71 876.21 1491.91 868C1490.51 861.598 1494.11 856.971 1495.47 851C1498.49 837.738 1483.55 825.914 1475.87 817C1472.7 813.323 1468.74 806.817 1463 808.762M656 928.844C647.572 931.978 639.454 939.031 632 944C616.723 954.185 601.435 964.366 586 974.308C578.724 978.994 565.014 984.473 561.742 993.001C559.043 1000.04 563.802 1008.02 564.711 1015C565.615 1021.94 560.699 1033.13 563.272 1038.96C565.753 1044.58 574.025 1047.18 579 1050C592.859 1057.87 607.064 1065.13 621 1072.86C629.325 1077.48 637.63 1082.15 646 1086.69C648.934 1088.28 653.38 1091.64 656.852 1091.41C664.133 1090.91 657.351 1074.95 655.532 1072C650.33 1063.57 641.019 1059.34 638.681 1049C634.083 1028.65 656.951 1013.82 675 1018.56C685.557 1021.33 692.957 1033.64 693.812 1044C694.678 1054.49 685.935 1060.09 682.468 1069C678.9 1078.17 679.023 1099.71 685.653 1107.67C689.637 1112.46 697.574 1115.34 703 1118.22C708.879 1121.34 715.06 1125.43 722 1123.35C726.905 1121.88 738.489 1115.89 740.393 1110.95C741.971 1106.84 739.885 1101.17 739.272 1097C737.7 1086.33 736.121 1075.65 734.411 1065C729.812 1036.37 725.922 1007.62 721.246 979C719.854 970.478 720.54 953.941 714.348 947.434C709.138 941.959 692.441 943.959 685 941.302C676.721 938.345 664.847 925.554 656 928.844M1337 974.428C1330.04 975.411 1318.22 974.614 1313.86 981.108C1307.88 990.008 1308.31 1008.42 1305.88 1019C1301.31 1038.89 1297.96 1059.06 1293.58 1079C1290.48 1093.08 1285.51 1107.63 1284.17 1122C1283.35 1130.86 1296.44 1139.86 1305 1138.77C1311.26 1137.98 1316.39 1132.09 1321 1128.25C1331.24 1119.71 1341.59 1111.33 1352 1103C1356.62 1099.31 1364.05 1095.15 1365.55 1089C1366.83 1083.76 1363.04 1077.96 1361.76 1073C1360.02 1066.23 1360.06 1059.8 1361.45 1053C1363.66 1042.2 1375.08 1031.28 1375.45 1021C1375.63 1015.91 1370.66 1010.96 1368 1007C1361.3 997.045 1350.75 972.487 1337 974.428z"/>
<path style="fill:#019878; stroke:none;" d="M797 1142C790.926 1154.99 786.125 1168.69 780.8 1182C778.88 1186.8 774.455 1193.76 774.696 1199C775.118 1208.18 794.828 1217.2 790.864 1226.98C785.707 1239.71 762.746 1237.69 754.994 1248.21C748.685 1256.77 745.745 1270.14 741.8 1280C733.444 1300.89 724.211 1321.69 717 1343C734.2 1339.93 748.028 1320.74 749.826 1304C750.796 1294.98 748.258 1285.41 752.674 1277C758.664 1265.6 774.425 1262.04 785 1256.14C791.66 1252.42 798.88 1245.68 807 1246.15C816.064 1246.67 821.368 1256.5 826.039 1263C830.649 1269.41 838.505 1274.71 839.786 1283C840.883 1290.09 837.451 1296.22 836.286 1303C833.554 1318.9 838.936 1334.19 854 1341.72C866.737 1348.09 894.303 1351.51 905.907 1341.61C917.539 1331.69 916.824 1317.3 935 1314.44C951.257 1311.88 968.572 1314.39 985 1312.83C999.799 1311.42 1017.26 1306.37 1032 1308.29C1047.8 1310.34 1058.67 1327.79 1075 1324.33C1092.29 1320.66 1090.83 1307.83 1098.7 1296C1102.81 1289.83 1109.81 1288.67 1114.5 1283.61C1120.64 1276.98 1124.94 1261.71 1127 1253C1115.33 1258.45 1101.91 1270.94 1089 1272.53C1082.65 1273.31 1071.9 1269.34 1066 1266.91C1057.48 1263.39 1053.54 1256.18 1048.56 1249C1040.99 1238.08 1032.94 1227.56 1024.88 1217C1021.28 1212.28 1013.89 1205.27 1013.62 1199C1013.37 1193.18 1024.7 1180.96 1029.04 1177.23C1036.13 1171.14 1050.46 1175.92 1059 1176.83C1082.09 1179.31 1104.95 1183.46 1128 1186.05C1133.94 1186.72 1147.39 1190.4 1152.58 1186.97C1157.13 1183.97 1159.62 1173.05 1161 1168C1130 1164.08 1099.06 1159.54 1068 1156.05C1059.2 1155.06 1039.81 1155.9 1035.18 1146.98C1026.26 1129.82 1059.68 1121.58 1070 1117.15C1090.66 1108.28 1111.32 1099.4 1132 1090.58C1141 1086.74 1152.17 1079.43 1162 1078.64C1172.58 1077.8 1182.74 1086.97 1194 1087C1198.08 1072.07 1205.25 1057.38 1211 1043C1213.74 1036.16 1218.26 1029.73 1210.98 1024.44C1193.94 1012.08 1171.55 1019.83 1161.48 1037C1156.64 1045.26 1158.9 1052.83 1150 1059.21C1130.2 1073.4 1101.4 1080.61 1079 1090.15C1066.69 1095.39 1054.29 1100.42 1042 1105.72C1037.36 1107.72 1030.83 1111.92 1025.58 1110.9C1017.63 1109.35 1010.74 1097.88 1004 1093.36C989.34 1083.53 970.943 1081.99 954 1085.66C937.625 1089.21 923.143 1098.43 914.453 1113C910.392 1119.81 908.573 1132.54 901.895 1136.99C893.572 1142.54 877.653 1142 868 1142C844.884 1142.01 819.923 1146.26 797 1142z"/>
<path style="fill:#01a758; stroke:none;" d="M1216 1029L1194 1087C1224.27 1086.92 1237.37 1049.33 1216 1029z"/>
<path style="fill:#ffffff; stroke:none;" d="M552.109 1060.02C546.341 1061.17 549.262 1068 551.21 1071C557.602 1080.86 564.731 1090.29 571.344 1100C595.616 1135.65 620.659 1170.8 645.576 1206C651.459 1214.31 657.205 1222.73 663.141 1231C665.088 1233.71 667.859 1238.95 671.956 1238.03C678.003 1236.66 674.973 1226.17 674.424 1222C672.153 1204.76 671.695 1187.24 669.424 1170C667.62 1156.3 669.894 1137.5 663.573 1125C659.013 1115.99 649.354 1112.21 641 1107.69C624.663 1098.86 608.244 1090.15 592 1081.14C582.356 1075.79 572.618 1070.62 563 1065.22C560.027 1063.55 555.773 1059.29 552.109 1060.02M687.743 1136.07C684.409 1138.52 687.105 1146.66 687.576 1150C689.406 1162.98 690.875 1176.02 692.729 1189C694.357 1200.39 693.049 1219.95 699.164 1229.79C702.714 1235.5 713.317 1236.81 719 1239.78C725.395 1243.13 731.382 1251.89 738.015 1253.55C743.387 1254.89 748.58 1250.7 753 1248.31C763.875 1242.43 779.79 1239.04 788.852 1230.61C797.523 1222.55 779.678 1204.59 772.996 1199.99C762.214 1192.57 749.794 1199.26 738 1196.07C724.968 1192.55 713.448 1181.01 709.927 1168C708.239 1161.76 709.597 1155.18 707.387 1149C705.644 1144.12 693.958 1131.5 687.743 1136.07M839 1162.42C824.51 1164.33 798.343 1158.32 788.653 1172.02C780.727 1183.22 798.738 1197.88 805.424 1206C808.598 1209.85 812.324 1215.15 818 1214.36C824.941 1213.4 832.748 1207.37 839 1204.25C854.788 1196.35 870.39 1188.02 886 1179.78C890.357 1177.48 907.225 1172.1 904.593 1165.15C902.738 1160.25 893.027 1162 889 1162C872.647 1162 855.215 1160.3 839 1162.42M1032 1174.74C1025.83 1177.08 1012.34 1193.24 1013.44 1200C1014.88 1208.89 1025.03 1218.1 1030.35 1225C1044.59 1243.49 1052.96 1264.47 1077 1270.24C1082.1 1271.46 1086.71 1273.76 1092 1272.08C1101.11 1269.19 1109.66 1262.89 1118 1258.31C1135.4 1248.75 1152.61 1238.86 1170 1229.31C1177.69 1225.08 1193.42 1220.59 1192.89 1210C1192.12 1194.5 1176.57 1191.29 1164 1189.43C1132.64 1184.78 1100.58 1181.22 1069 1177.83C1059 1176.76 1041.48 1171.15 1032 1174.74M911 1190.64C890.115 1196.53 869.437 1212.53 850 1222.25C845.404 1224.55 831.71 1228.79 831.632 1235.04C831.57 1240 838.492 1245.47 841.386 1249C846.119 1254.77 852.348 1266.63 860.004 1268.55C869.634 1270.96 879.361 1264.26 890 1267.75C904.699 1272.57 909.415 1288.56 923 1293.88C934.032 1298.2 945.724 1294.12 957 1293.07C973.232 1291.57 989.694 1290 1006 1290C1016.86 1290 1029.67 1291.84 1039.98 1287.74C1047.05 1284.93 1044.23 1278.81 1040.97 1274C1033.32 1262.69 1024.57 1252.07 1016.58 1241C1010.45 1232.52 1001.96 1215.27 991.985 1211.24C986.654 1209.09 980.426 1212.29 975 1212.83C964.775 1213.85 954.438 1212.72 945 1208.56C934.575 1203.97 923.001 1187.25 911 1190.64z"/>
<path style="fill:#019878; stroke:none;" d="M1076 1445L1076 1679L1105 1679L1105 1515C1122.15 1532.15 1138.22 1555.07 1158 1569C1158 1558.25 1162.64 1542.17 1159.36 1532C1156.47 1523.07 1144.42 1514.49 1138 1508C1123.76 1493.59 1110.17 1478.51 1096.01 1464C1089.75 1457.58 1084.3 1448.87 1076 1445z"/>
<path style="fill:#0179ac; stroke:none;" d="M464 1560L367 1560L367 1596L414 1596C409.44 1631.31 372.823 1657.68 339 1639.68C318.103 1628.56 306.539 1606.61 302.463 1584C297.518 1556.57 305.238 1523.57 326.004 1504.09C354.244 1477.61 398.179 1488.59 413 1524L453 1504C450.532 1493.21 441.641 1483.57 434 1476C406.1 1448.39 361.008 1442.28 325 1456.06C276.599 1474.59 251.68 1527.21 255.09 1577C257.115 1606.57 268.363 1636.18 290.001 1656.96C327.454 1692.93 391.469 1695.5 429.985 1659.83C456.95 1634.86 464 1594.99 464 1560z"/>
<path style="fill:#018994; stroke:none;" d="M737 1449C731.896 1467.7 723.314 1485.89 716.424 1504C702.102 1541.65 687.793 1579.31 673.576 1617C666.19 1636.58 654.059 1658.29 651 1679L698 1679C701.086 1667.72 706.419 1656.93 710.576 1646C712.101 1641.99 713.279 1635.4 717.225 1633.03C720.6 1631 726.222 1632 730 1632L761 1632C768.1 1632 785.97 1628.79 791.501 1633.6C804.066 1644.53 797.418 1678.98 818 1679L821.039 1612C821.424 1603.21 823.291 1593.8 822.106 1585C821.029 1577 816.474 1568.55 813.681 1561C807.396 1544 801.232 1526.95 794.808 1510C789.268 1495.38 784.092 1480.63 778.576 1466C776.916 1461.6 775.558 1452.82 771.501 1450.03C764.74 1445.37 745.169 1449 737 1449z"/>
<path style="fill:#01a758; stroke:none;" d="M1408 1450.42C1380.15 1454.08 1355.58 1460.75 1334 1480.17C1285.83 1523.53 1281.63 1603.43 1328.09 1649.91C1355.21 1677.04 1393.6 1687.49 1431 1682.71C1491.53 1674.99 1534.01 1618.79 1529.91 1559C1525.91 1500.66 1469.66 1442.33 1408 1450.42M1923 1634C1904.51 1644.64 1889.6 1656.96 1867 1657C1852.52 1657.02 1839.15 1655.3 1826 1648.73C1756.61 1614.03 1761.93 1508.84 1835 1482.05C1845.97 1478.03 1857.35 1476.53 1869 1477.04C1890.58 1477.99 1904.84 1489.73 1923 1499C1923 1491.07 1926.51 1472.19 1921.97 1465.63C1917.86 1459.69 1904.65 1456.35 1898 1454.63C1873.6 1448.32 1846.73 1448.63 1823 1457.81C1774.72 1476.5 1746.92 1521.18 1747 1572C1747.08 1621.96 1783 1665.27 1830 1679.28C1853.03 1686.14 1878.23 1685.52 1901 1678C1907.01 1676.01 1918.53 1673.62 1921.97 1667.79C1926.39 1660.3 1923 1642.63 1923 1634z"/>
<path style="fill:#0179ac; stroke:none;" d="M0 1455L0 1679C36.5994 1679 79.4306 1685.33 113 1667.68C182.62 1631.07 191.039 1521.41 127 1474.92C90.4116 1448.36 42.5973 1455 0 1455M191 1455L191 1679L235 1679L235 1455L191 1455M484 1455L484 1679L513 1679L523 1455L484 1455z"/>
<path style="fill:#018994; stroke:none;" d="M523 1455L513 1679L529 1679L529 1455L523 1455M543 1455L543 1494L588 1494L588 1679L633 1679L633 1494L678 1494L678 1455L543 1455z"/>
<path style="fill:#019878; stroke:none;" d="M869 1455L869 1679L975 1679L975 1640L914 1640L914 1455L869 1455z"/>
<path style="fill:#01a758; stroke:none;" d="M1244 1455L1244 1619L1183 1555L1160 1532C1158.77 1541.76 1155.19 1559.75 1158.6 1569C1162.93 1580.72 1178.59 1590.79 1186.71 1600C1204.92 1620.64 1224.58 1640.49 1244 1660C1253.21 1669.26 1261.25 1680.43 1272 1688L1272 1455L1244 1455M1535 1455L1535 1482L1588 1482L1588 1679L1617 1679L1617 1482L1670 1482L1670 1455L1535 1455M1690 1455L1690 1679L1719 1679L1719 1455L1690 1455M1955 1455L1955 1679L2075 1679L2075 1653L1984 1653L1984 1569L2073 1569L2073 1543L1984 1543L1984 1482L2075 1482L2075 1455L1955 1455z"/>
<path style="fill:#ffffff; stroke:none;" d="M1410 1477.44C1377.77 1480.88 1349.17 1494.6 1333.97 1525C1304.64 1583.66 1348.36 1663.46 1418 1656.83C1457.59 1653.06 1492.02 1624.88 1499.54 1585C1509.5 1532.18 1468.08 1471.24 1410 1477.44M1984 1482L1984 1543L2073 1543L2073 1569L1984 1569L1984 1653L2075 1653L2075 1482L1984 1482M44 1494L44 1640C65.4679 1640 86.9758 1638.63 103.985 1623.7C132.185 1598.95 132.154 1536.6 104.961 1511.17C88.4784 1495.76 65.3655 1494 44 1494M752 1516C748.083 1542.52 736.303 1570.48 728 1596L780 1596L761.053 1541L752 1516z"/>
<path style="fill:#019878; stroke:none;" d="M822 1586L818 1679L857 1679L835.053 1619L822 1586z"/>
</svg>
