<svg width="36" height="37" viewBox="0 0 36 37" fill="none" xmlns="http://www.w3.org/2000/svg">
<path d="M8.17228 37V12.0362H0.455299V37H8.17228ZM4.31479 8.62573C7.00584 8.62573 8.68089 6.7088 8.68089 4.31327C8.63075 1.86372 7.00594 0 4.36586 0C1.72618 0 0 1.86376 0 4.31327C0 6.70891 1.67464 8.62573 4.26441 8.62573H4.31455H4.31479ZM12.4436 37H20.1606V23.059C20.1606 22.3129 20.2107 21.5675 20.4145 21.0342C20.9724 19.5435 22.2421 17.9996 24.3739 17.9996C27.1664 17.9996 28.2835 20.2888 28.2835 23.6447V36.9998H36V22.6858C36 15.0179 32.1929 11.4501 27.1155 11.4501C22.9525 11.4501 21.1247 13.9521 20.1093 15.6562H20.1608V12.0356H12.4438C12.5451 14.3781 12.4438 36.9995 12.4438 36.9995L12.4436 37Z" fill="white"/>
</svg>
