<svg width="37" height="37" viewBox="0 0 37 37" fill="none" xmlns="http://www.w3.org/2000/svg">
<path d="M34.9444 0H2.05556C1.51039 0 0.98755 0.216567 0.602058 0.602058C0.216567 0.98755 0 1.51039 0 2.05556V34.9444C0 35.4896 0.216567 36.0125 0.602058 36.3979C0.98755 36.7834 1.51039 37 2.05556 37H34.9444C35.4896 37 36.0125 36.7834 36.3979 36.3979C36.7834 36.0125 37 35.4896 37 34.9444V2.05556C37 1.51039 36.7834 0.98755 36.3979 0.602058C36.0125 0.216567 35.4896 0 34.9444 0ZM30.7388 8.76694L28.7531 10.6683C28.6692 10.7323 28.6045 10.8181 28.5661 10.9163C28.5277 11.0146 28.517 11.1215 28.5352 11.2254V25.2052C28.517 25.3091 28.5277 25.416 28.5661 25.5143C28.6045 25.6125 28.6692 25.6983 28.7531 25.7623L30.6894 27.6657V28.0851H20.9441V27.6657L22.9523 25.7171C23.1517 25.5197 23.1517 25.4601 23.1517 25.16V13.8586L17.5688 28.0337H16.8124L10.3148 13.8586V23.3593C10.2891 23.5568 10.3083 23.7574 10.371 23.9464C10.4336 24.1354 10.5381 24.3078 10.6766 24.4508L13.2892 27.6184V28.0357H5.88094V27.6184L8.49356 24.4508C8.63107 24.3079 8.73319 24.1347 8.79173 23.9451C8.85027 23.7556 8.8636 23.555 8.83067 23.3593V12.3744C8.84604 12.2241 8.82576 12.0722 8.77147 11.9311C8.71719 11.7901 8.63043 11.6638 8.51822 11.5625L6.19544 8.76694V8.34967H13.4022L18.9728 20.5658L23.8691 8.34967H30.7408V8.76694H30.7388Z" fill="white"/>
</svg>
