<svg width="44" height="38" viewBox="0 0 44 38" fill="none" xmlns="http://www.w3.org/2000/svg">
<path d="M44 4.50749C42.3819 5.2692 40.6437 5.78387 38.8163 6.0165C40.7018 4.81793 42.1125 2.93151 42.785 0.709249C41.0135 1.82709 39.0747 2.61392 37.0529 3.03555C35.6933 1.49332 33.8925 0.471115 31.93 0.127622C29.9675 -0.215872 27.9532 0.138569 26.1997 1.13591C24.4463 2.13326 23.0518 3.71771 22.2328 5.64327C21.4139 7.56883 21.2162 9.72776 21.6706 11.7849C18.0811 11.5934 14.5697 10.6023 11.3642 8.87579C8.15862 7.1493 5.33062 4.72604 3.06368 1.76329C2.28856 3.18377 1.84286 4.83071 1.84286 6.58469C1.842 8.16368 2.20801 9.71848 2.90842 11.1112C3.60884 12.5038 4.622 13.6913 5.85801 14.5682C4.42456 14.5198 3.02274 14.1083 1.76922 13.368V13.4915C1.76908 15.7061 2.49015 17.8526 3.8101 19.5667C5.13004 21.2807 6.96755 22.4569 9.01083 22.8955C7.68108 23.2779 6.28692 23.3342 4.93367 23.0602C5.51017 24.9658 6.63313 26.6321 8.14534 27.8259C9.65756 29.0197 11.4833 29.6813 13.367 29.718C10.1693 32.3848 6.22016 33.8314 2.15485 33.825C1.43472 33.8252 0.715201 33.7805 0 33.6912C4.12653 36.5099 8.93011 38.0058 13.836 38C30.4431 38 39.5217 23.3875 39.5217 10.7144C39.5217 10.3026 39.512 9.8868 39.4946 9.47506C41.2605 8.11835 42.7848 6.43831 43.9961 4.51367L44 4.50749Z" fill="white"/>
</svg>
