<svg width="59" height="68" viewBox="0 0 59 68" fill="none" xmlns="http://www.w3.org/2000/svg">
<path d="M24.9628 2.92946C27.6326 1.38803 30.922 1.38803 33.5918 2.92946L54.0838 14.7605C56.7537 16.302 58.3983 19.1506 58.3983 22.2335V45.8956C58.3983 48.9785 56.7537 51.8272 54.0838 53.3686L33.5918 65.1997C30.922 66.7411 27.6326 66.7411 24.9628 65.1997L4.47075 53.3686C1.80093 51.8272 0.15625 48.9785 0.15625 45.8956V22.2335C0.15625 19.1506 1.80093 16.302 4.47075 14.7605L24.9628 2.92946Z" fill="url(#paint0_linear_1725_886)"/>
<path d="M44.4416 27.8235L34.7212 26.4538L30.3759 17.9122C30.2572 17.6784 30.0619 17.4891 29.8207 17.374C29.2159 17.0844 28.4808 17.3257 28.1783 17.9122L23.8331 26.4538L14.1126 27.8235C13.8446 27.8606 13.5996 27.9831 13.412 28.1687C13.1852 28.3948 13.0603 28.6988 13.0646 29.0141C13.0689 29.3295 13.2021 29.6302 13.435 29.8503L20.4678 36.4987L18.8063 45.8866C18.7673 46.1049 18.7923 46.3295 18.8782 46.5349C18.9642 46.7402 19.1078 46.9181 19.2928 47.0484C19.4777 47.1786 19.6966 47.256 19.9246 47.2718C20.1526 47.2875 20.3806 47.241 20.5827 47.1375L29.2771 42.7053L37.9715 47.1375C38.2089 47.26 38.4845 47.3009 38.7487 47.2563C39.4148 47.145 39.8628 46.5325 39.7479 45.8866L38.0864 36.4987L45.1192 29.8503C45.3107 29.6684 45.437 29.4309 45.4753 29.171C45.5786 28.5214 45.1116 27.92 44.4416 27.8235Z" fill="url(#paint1_linear_1725_886)"/>
<defs>
<linearGradient id="paint0_linear_1725_886" x1="29.2777" y1="0.438477" x2="29.2777" y2="67.6907" gradientUnits="userSpaceOnUse">
<stop stop-color="#A161C6"/>
<stop offset="1" stop-color="#6F2F99"/>
</linearGradient>
<linearGradient id="paint1_linear_1725_886" x1="27.733" y1="17.2515" x2="31.1882" y2="33.8067" gradientUnits="userSpaceOnUse">
<stop stop-color="#FFF5D3"/>
<stop offset="1" stop-color="#FDC506"/>
</linearGradient>
</defs>
</svg>
